<?xml version="1.0" encoding="UTF-8"?>
<!DOCTYPE svg PUBLIC "-//W3C//DTD SVG 1.1//EN" "http://www.w3.org/Graphics/SVG/1.1/DTD/svg11.dtd">
<!-- Creator: CorelDRAW 2019 -->
<svg xmlns="http://www.w3.org/2000/svg" xml:space="preserve" width="300mm" height="240mm" version="1.1" style="shape-rendering:geometricPrecision; text-rendering:geometricPrecision; image-rendering:optimizeQuality; fill-rule:evenodd; clip-rule:evenodd"
viewBox="0 0 30000 24000"
 xmlns:xlink="http://www.w3.org/1999/xlink">
 <defs>
  <style type="text/css">
   <![CDATA[
    .fil0 {fill:red}
   ]]>
  </style>
 </defs>
 <g id="Layer_x0020_1">
  <metadata id="CorelCorpID_0Corel-Layer"/>
  <path class="fil0" d="M5403.94 8244.28c3906.13,8508.14 10645.69,13050.61 20218.69,13627.39 2022.48,86.57 3122.43,-200.62 3299.89,-861.6 -463.24,-293.63 -1590.53,-521.54 -3381.86,-683.71 -8427.57,-1093.86 -14835.42,-5331.95 -19223.55,-12714.28 -188.41,-328.59 -469.39,-531.51 -842.93,-608.77 -265.22,296.95 -288.63,710.61 -70.24,1240.97z"/>
  <path class="fil0" d="M2383.43 2835.45c4031.47,2525.87 7356.38,4383.44 9974.69,5572.71 393.46,158.98 736.89,127.76 1030.26,-93.66 -56.33,-285.97 -177.31,-512.33 -362.93,-679.03 -2201.51,-1606.53 -6014.06,-3739.39 -11437.65,-6398.58 -385.22,-195.38 -554.83,-135.42 -508.79,179.82 735.45,3825.7 684.92,7237.07 309.32,11089.02 -182.57,1606.22 -218.19,3199.07 -106.84,4778.56 234.56,671.14 516,873.44 844.37,606.87 1412.96,-6334.05 1498.8,-11352.61 257.57,-15055.71z"/>
 </g>
</svg>
