<?xml version="1.0" encoding="UTF-8"?>
<!DOCTYPE svg PUBLIC "-//W3C//DTD SVG 1.1//EN" "http://www.w3.org/Graphics/SVG/1.1/DTD/svg11.dtd">
<!-- Creator: CorelDRAW 2019 -->
<svg xmlns="http://www.w3.org/2000/svg" xml:space="preserve" width="300mm" height="240mm" version="1.1" style="shape-rendering:geometricPrecision; text-rendering:geometricPrecision; image-rendering:optimizeQuality; fill-rule:evenodd; clip-rule:evenodd"
viewBox="0 0 30000 24000"
 xmlns:xlink="http://www.w3.org/1999/xlink">
 <defs>
  <style type="text/css">
   <![CDATA[
    .fil0 {fill:#CBCB41}
   ]]>
  </style>
 </defs>
 <g id="Layer_x0020_1">
  <metadata id="CorelCorpID_0Corel-Layer"/>
  <path class="fil0" d="M5361.12 20833.92c4142.57,41.85 6257.77,-1943.67 6345.13,-5956.54l0 -12625.17 -3949.49 0 0 11459.65c188.66,2832.68 -1106.3,4127.64 -3884.65,3884.65l-1748.16 0 0 3237.41 3237.17 0z"/>
  <path class="fil0" d="M21368.32 13533.96c2623.21,1159.65 1919.69,3800.96 -430.43,4072.1 -1343.66,155.14 -3161.31,17.86 -5461.51,-737.78 -149.02,665.59 -310.77,1647.58 -485.49,2945.97 3442.23,1747.17 8157.89,1518.62 11037.79,-1373.03 907.6,-1547.74 1228.41,-2811.87 886.31,-4852.44 -938.43,-2026.14 -2531.93,-2744.58 -6068.13,-4095.1 -3295.65,-1260.95 -2590.9,-4230.41 549.36,-4372.34 1464.3,-185.48 3477.96,151.23 4601.38,934.52 313.47,-970.73 654.09,-1483.88 1151.08,-3028.19 -2476.63,-1160.38 -5713.55,-1692.36 -8823.47,-629.87 -2032.99,839.33 -3433.18,3639.95 -2950.38,7006.81 539.32,2126.22 2106.15,2421.82 5993.49,4129.35z"/>
 </g>
</svg>
