<?xml version="1.0" encoding="UTF-8"?>
<!DOCTYPE svg PUBLIC "-//W3C//DTD SVG 1.1//EN" "http://www.w3.org/Graphics/SVG/1.1/DTD/svg11.dtd">
<!-- Creator: CorelDRAW 2019 -->
<svg xmlns="http://www.w3.org/2000/svg" xml:space="preserve" width="75mm" height="61.742mm" version="1.1" style="shape-rendering:geometricPrecision; text-rendering:geometricPrecision; image-rendering:optimizeQuality; fill-rule:evenodd; clip-rule:evenodd"
viewBox="0 0 7500 6174.2"
 xmlns:xlink="http://www.w3.org/1999/xlink">
 <defs>
  <style type="text/css">
   <![CDATA[
    .str3 {stroke:#2B2A29;stroke-width:33.87;stroke-miterlimit:22.9256}
    .str4 {stroke:#2B2A29;stroke-width:8.47;stroke-miterlimit:22.9256}
    .str0 {stroke:#D6AD2D;stroke-width:8.47;stroke-miterlimit:22.9256}
    .str5 {stroke:#727271;stroke-width:16.93;stroke-miterlimit:22.9256}
    .str2 {stroke:#2B2A29;stroke-width:16.93;stroke-miterlimit:22.9256}
    .str1 {stroke:#D6AD2D;stroke-width:25.4;stroke-miterlimit:22.9256}
    .fil1 {fill:none}
    .fil3 {fill:none}
    .fil9 {fill:#BFCDC0}
    .fil15 {fill:#C5C6C6}
    .fil0 {fill:#D6AD2D}
    .fil14 {fill:#DEBF76}
    .fil10 {fill:#DEEDDA}
    .fil6 {fill:#ECECEC}
    .fil11 {fill:#F3E1B9}
    .fil8 {fill:#F3F3F3}
    .fil7 {fill:#F7A11A}
    .fil13 {fill:#FCCC5E}
    .fil12 {fill:#FEC223}
    .fil5 {fill:#FFF7D0}
    .fil4 {fill:#2B2A29;fill-rule:nonzero}
    .fil2 {fill:#F3F3F3;fill-opacity:0.701961}
   ]]>
  </style>
 </defs>
 <g id="Layer_x0020_1">
  <metadata id="CorelCorpID_0Corel-Layer"/>
  <g id="_1355788344">
   <g>
    <g>
     <g>
      <path class="fil0" d="M875.64 2571.46c-183.67,184.9 -228.27,445.83 -181.76,875.69 -5.88,61.81 -19.02,64.26 -39.43,7.38 -47.37,-550.44 7.88,-940.12 165.8,-1168.94 -185.5,224.96 -257,525.04 -214.51,900.25 -65.3,-143.66 -65.35,-431.93 -0.16,-864.79 52.51,-40.95 85.57,-71.21 99.17,-90.76 6.27,-33.61 -5.93,-42.84 -36.58,-27.69 -59.43,29.76 -110.55,36.19 -153.35,19.27 -34.1,-14.53 -46.74,-3.79 -37.92,32.22 33.26,33.63 62.02,55.98 86.32,67.03 -47.44,227.14 -61.72,402.47 -42.84,525.97 -2.15,34.81 -8.98,46.03 -20.39,33.64 -77.34,-82.35 -154.43,-161.58 -231.25,-237.68 -29.67,-30.26 -42.81,-27.8 -39.43,7.39 61.84,144.27 142.38,253.19 241.65,326.76 58.51,61.15 88.84,136.57 90.99,226.25 14.6,84.2 32.76,164.5 54.51,240.92 1.49,34.85 20.46,120.84 79.32,239.43 8.22,31.18 33.75,53.73 46.97,116.77 40.5,113.76 77.7,220.32 111.62,319.71 16.62,-14.3 30.23,-22.61 40.86,-24.91 -34.83,-65.02 -66.61,-137.03 -95.36,-216.02 -37.84,-120.47 -69.2,-285.03 -76.42,-412.93 -1.33,-16.03 -6.03,-30.84 5.42,-58.77 109.15,-211.53 216.96,-365.11 323.43,-460.76 -17.62,-33.41 -49.72,-14.85 -96.31,55.69 -85.36,82.37 -140.73,155.51 -166.12,219.43 -33.56,63.96 -62.7,103.95 -87.43,119.95 -7.67,-383.91 84.33,-661.15 276,-831.71l-102.8 61.21zm-555.57 178.13c54.74,103.87 109.88,163.65 165.41,179.37 -33.54,-69.86 -88.68,-129.65 -165.41,-179.37z"/>
      <path id="1" class="fil1 str0" d="M875.64 2571.46c-183.67,184.9 -228.27,445.83 -181.76,875.69 -5.88,61.81 -19.02,64.26 -39.43,7.38 -47.37,-550.44 7.88,-940.12 165.8,-1168.94 -185.5,224.96 -257,525.04 -214.51,900.25 -65.3,-143.66 -65.35,-431.93 -0.16,-864.79 52.51,-40.95 85.57,-71.21 99.17,-90.76 6.27,-33.61 -5.93,-42.84 -36.58,-27.69 -59.43,29.76 -110.55,36.19 -153.35,19.27 -34.1,-14.53 -46.74,-3.79 -37.92,32.22 33.26,33.63 62.02,55.98 86.32,67.03 -47.44,227.14 -61.72,402.47 -42.84,525.97 -2.15,34.81 -8.98,46.03 -20.39,33.64 -77.34,-82.35 -154.43,-161.58 -231.25,-237.68 -29.67,-30.26 -42.81,-27.8 -39.43,7.39 61.84,144.27 142.38,253.19 241.65,326.76 58.51,61.15 88.84,136.57 90.99,226.25 14.6,84.2 32.76,164.5 54.51,240.92 1.49,34.85 20.46,120.84 79.32,239.43 8.22,31.18 33.75,53.73 46.97,116.77 40.5,113.76 77.7,220.32 111.62,319.71 16.62,-14.3 30.23,-22.61 40.86,-24.91 -34.83,-65.02 -66.61,-137.03 -95.36,-216.02 -37.84,-120.47 -69.2,-285.03 -76.42,-412.93 -1.33,-16.03 -6.03,-30.84 5.42,-58.77 109.15,-211.53 216.96,-365.11 323.43,-460.76 -17.62,-33.41 -49.72,-14.85 -96.31,55.69 -85.36,82.37 -140.73,155.51 -166.12,219.43 -33.56,63.96 -62.7,103.95 -87.43,119.95 -7.67,-383.91 84.33,-661.15 276,-831.71m-658.37 239.34c54.74,103.87 109.88,163.65 165.41,179.37 -33.54,-69.86 -88.68,-129.65 -165.41,-179.37z"/>
     </g>
     <path class="fil0 str0" d="M302.06 1713.92c17.09,-28.72 29.28,-19.49 36.57,27.69 4.11,94.89 33.46,167.88 88.06,218.96 84.02,27.4 137.65,62.36 160.88,104.87 21.54,58.04 7.98,94.58 -40.7,109.64 -102.12,-2.88 -178.25,-93.79 -228.39,-272.74 -15.65,-68.75 -21.13,-131.56 -16.42,-188.42z"/>
     <path class="fil0 str0" d="M402.33 1436.19c-19.2,-129.39 -37.29,-167.34 -54.26,-113.85 20.33,128.24 32.2,228.03 35.62,299.4 1.46,100.54 27.9,180.34 79.33,239.42 32.45,50.94 73.44,96.63 122.97,137.09 46.11,13.5 63.56,-27.44 52.36,-122.81 -16.38,-81.35 -60.34,-148.46 -131.85,-201.34 -50.94,-46.19 -85.66,-125.49 -104.17,-237.91z"/>
     <path class="fil0 str0" d="M484.91 1072.3c16.69,-130.55 8.78,-192.37 -23.72,-185.49 -9.81,161.63 -15.41,288.24 -16.81,379.85 -16.36,99.29 12.57,206.37 86.79,321.21 36.87,67.38 75.39,99.94 115.59,97.65 1.74,-28.03 12.91,-49.47 33.47,-64.33 47.03,-113.15 38.09,-205.64 -26.82,-277.51 -92.53,-90.32 -148.69,-180.78 -168.5,-271.38z"/>
     <path class="fil0 str0" d="M597.88 552.03c-22.42,-13.58 -37.02,-7.71 -43.79,17.61 0.46,164.65 -2.68,304.4 -9.44,419.27 -5.67,79.73 18.34,160.51 72.04,242.36 49.29,43.83 88.26,56.42 116.93,37.76 33.07,-126.63 17.79,-227.89 -45.85,-303.76 -74.66,-39.75 -110.78,-87.4 -108.37,-142.95 -0.75,-91.79 5.4,-181.89 18.48,-270.29z"/>
     <path class="fil0 str0" d="M832.47 1008.83c-16.18,-9.95 -28.37,-19.18 -36.57,-27.7 -101.1,-100.19 -118.34,-206.3 -51.73,-318.35 43.03,-49.73 91.61,-111.66 145.73,-185.79 23.3,-68.38 32.45,-122.93 27.45,-163.66 10.18,-38.23 24.77,-44.1 43.79,-17.61 -23.35,83.58 -23.16,182.43 0.56,296.54 52.44,151.83 25.89,275.57 -79.65,371.19 -13.9,19.37 -30.43,34.5 -49.58,45.38z"/>
     <path class="fil0 str0" d="M1048.8 1082.92c-17.75,197.59 -112.25,310.5 -283.49,338.71 9.12,-60.48 18.28,-115.04 27.45,-163.67 26.15,-109.57 83.2,-196.11 171.15,-259.61 58.48,-71.37 95.34,-148.38 110.59,-231.01 16.2,-90.39 24.37,-147.37 24.52,-170.96 17.09,-28.73 29.27,-19.5 36.57,27.69 -16.45,140.82 -41.07,255.3 -73.86,343.43 -6.25,30.02 -10.56,68.49 -12.93,115.42z"/>
     <path class="fil0 str0" d="M998.51 1527.1c-75.52,173.63 -171.24,279.96 -287.18,318.99 -10.46,-191.53 72.04,-337.76 247.51,-438.7 51.06,-57.72 105.4,-161.54 163.03,-311.46 18.45,-24.38 25.28,-21.47 20.46,8.73 -77.61,197.2 -125.56,338.02 -143.82,422.44z"/>
     <path class="fil0 str0" d="M964 1820.79c-36.29,157.83 -132.49,270 -288.61,336.52 -5.02,-170.68 49.33,-274.5 163.03,-311.46 95.48,-40.59 178.62,-107.93 249.42,-202.06 29.57,-12.81 35.44,1.79 17.61,43.8 -48.46,57.95 -95.6,102.35 -141.45,133.2z"/>
     <path class="fil0 str0" d="M968.12 1683.46c6.86,14.14 21.96,16.55 45.3,7.22 97.97,-116.04 186.01,-171.23 264.09,-165.57 72.66,7.58 104.29,-5.14 94.89,-38.16 -83.33,-12.96 -136.96,-47.93 -160.88,-104.87 -21.84,-13.89 -38.87,-7.05 -51.1,20.55 19.9,58.41 11.7,101.27 -24.59,128.59 -82.9,44.43 -138.8,95.19 -167.71,152.24z"/>
     <path class="fil0 str0" d="M1322.02 1108.7c56.69,124.42 64.14,206.2 22.37,245.37 -27.7,42.36 -59.82,46.8 -96.39,13.33 -56.93,-153.07 4.1,-324.58 183.1,-514.55 27.26,14 19.99,31.05 -21.82,51.18 -56.38,56.58 -85.47,124.82 -87.26,204.67z"/>
     <path class="fil0 str0" d="M1602.3 1004.46c-8.83,139.34 -64.65,232.44 -167.47,279.32 -43.58,-159.68 -4.92,-316.54 115.98,-470.59 102.38,-167.63 169.41,-253.94 201.1,-258.94 3.05,41.71 -26.07,95.82 -87.34,162.32 -74.33,74.17 -95.09,170.13 -62.27,287.89z"/>
     <path class="fil0 str0" d="M1684.89 1420.63c-153.48,59.38 -252.8,65.41 -297.97,18.09 66.78,-117.58 152.37,-171.79 256.79,-162.63 83.47,14.91 157.01,22.07 220.62,21.5 73.84,-13.75 132.25,-23.12 175.24,-28.09 -14.31,30.32 -67.83,51.85 -160.56,64.58 -53.45,7.83 -118.16,36.68 -194.12,86.55z"/>
     <path class="fil0 str0" d="M2201.25 1017.95c-237.33,165.44 -432.46,235.43 -585.39,209.99 75.68,-143.1 207.98,-221.75 396.9,-235.93 83.07,19.44 169.22,1.75 258.46,-53.08 65.29,-47.1 124.62,-82.26 178.02,-105.51 -17.38,52.76 -100.04,114.26 -247.99,184.53z"/>
     <path class="fil0 str0" d="M2257.97 884.9c-145.35,89.43 -249.07,91.57 -311.13,6.43 46.66,-26.73 87.99,-57.49 123.99,-92.27 106.53,-59.06 239.87,-107.03 399.99,-143.9 66.77,-36.15 162.55,-114.24 287.34,-234.27 33.8,-12.42 41.6,-7.08 23.4,16.03 -255.96,263.86 -430.48,413.18 -523.59,447.98z"/>
     <path class="fil0 str0" d="M1930.33 660.56c-7.1,213.27 -96.95,334.2 -269.57,362.78 -43.15,-129.25 5.78,-267.63 146.77,-415.14 148.62,-172.67 251.65,-281.93 309.07,-327.8 10.33,37.78 -28.03,89.95 -115.1,156.52 -71.03,69.68 -94.75,144.22 -71.17,223.64z"/>
     <path class="fil0 str0" d="M2217.75 468.65c-25.2,130.03 -70.83,213.39 -136.85,250.05 -41.21,43.89 -70.43,41.51 -87.66,-7.13 -36.44,-118.09 21.77,-240.42 174.61,-366.99 107.75,-114.5 193.26,-211.08 256.56,-289.72 24.99,37.67 -41.07,126.41 -198.17,266.24 -27.52,32.38 -30.35,81.56 -8.49,147.55z"/>
     <path class="fil0 str0" d="M2629.55 396.3c-73.13,136.41 -184.98,209.66 -335.56,219.75 -36.05,-176.78 20.7,-295.7 170.24,-356.76 161.44,-22.2 269.46,-62.82 324.07,-121.85 38.18,-56.7 70.76,-81.11 97.74,-73.22 -25.07,34.13 -61.52,77.05 -109.32,128.76 -46.7,56.08 -95.76,123.85 -147.17,203.32z"/>
    </g>
    <g>
     <path class="fil0 str0" d="M2758.16 6147.12c-70.75,-20.79 -144.38,-48.65 -220.84,-83.58 -160.38,-82.11 -252.32,-154.55 -275.87,-217.32 7.35,-59.35 18.26,-140.03 32.75,-242.04 0.35,-63.51 -3.66,-122.01 -12.05,-175.5 -10.5,-53.73 -11.89,-91.25 -4.2,-112.55 -1.71,-35.04 -19.88,-25.57 -54.47,28.43 -94.72,147.06 -101.83,300.36 -21.31,459.88 -22.02,13.62 -38.95,6.56 -50.83,-21.19 -74.18,-226.18 -108.01,-410.75 -101.49,-553.72 -36.17,-10.88 -45.46,25.01 -27.86,107.71 -1.19,118.6 12.1,209.37 39.84,272.31 22.05,68.78 30.1,117.6 24.17,146.44 -279,-263.83 -334.08,-416.13 -360.92,-682.27 -41.82,-74.58 -85.03,-91.37 -108.47,-80.42 2.95,260.6 199.36,574.2 538.35,842.59 39.92,47.55 32.43,58.63 -22.41,33.28 -425.55,-352.38 -664.48,-665.09 -716.77,-938.16 30.2,290.01 193.9,551.47 491.11,784.4 -148.19,-54.25 -353.67,-256.44 -616.43,-606.53 7.65,-66.15 9.27,-110.94 4.88,-134.34 -19.57,-28.06 -34.69,-25.84 -45.38,6.64 -20.49,63.23 -51.77,104.17 -93.83,122.82 -34.3,14.09 -35.51,30.64 -3.66,49.61 47.3,-0.11 83.4,-4.92 108.32,-14.49 128.6,193.14 243.54,326.31 344.8,399.49 23.29,25.95 26.52,38.66 9.67,38.13 -112.94,-2.65 -223.48,-3.29 -331.61,-1.93 -42.38,-0.08 -49.84,11.02 -22.39,33.28 146.2,57.15 280.33,76.14 402.39,57.01 84.63,1.18 159.66,32.49 225.08,93.87 70.24,48.66 140.22,92.04 209.93,130.16 30.47,15.18 24.02,23.85 -19.37,26.01 -72.41,-5.69 -147.66,11.22 -225.72,50.76 -39.94,0.4 -74.24,14.51 -102.89,42.33 42.68,12.31 85.03,12.93 127.07,1.86 36.8,6.63 74.11,19.35 111.94,38.15 128.91,51.6 240.65,35.71 335.25,-47.68 23.25,-2.52 61.97,13.63 116.17,48.43 109.48,50.93 211.53,99.18 306.15,144.72 1.45,-21.88 5.09,-37.41 10.9,-46.59zm-502.7 -490.91c-4.76,48.69 -14.05,84.59 -27.87,107.69 -52.03,-126.29 -62.29,-224.32 -30.77,-294.1 9.85,-43.91 25.79,-68.51 47.83,-73.8 19.9,107.16 23.51,193.89 10.81,260.21zm-6.78 363.68c-99.47,41.61 -205.96,31.29 -319.49,-30.97 119.51,-52.01 227.23,-58.23 323.14,-18.66 31.88,18.98 30.66,35.51 -3.65,49.63zm-853.09 -406.91c112.42,33.85 193.71,36.48 243.87,7.93 -73.32,-25.1 -154.61,-27.75 -243.87,-7.93z"/>
     <path class="fil0 str0" d="M644.85 4899.29c-8.48,-32.33 6.65,-34.53 45.39,-6.64 70.51,63.64 143.12,93.92 217.82,90.84 78.46,-40.66 141,-54.35 187.6,-41.09 56.48,25.37 73,60.67 49.58,105.92 -73.68,70.76 -191.88,61.24 -354.59,-28.56 -59.97,-37.07 -108.58,-77.22 -145.8,-120.47z"/>
     <path class="fil0 str0" d="M517.26 4633.01c-105.68,-77.08 -145.42,-90.82 -119.2,-41.2 105.65,75.47 185.1,137.02 238.36,184.65 72.67,69.48 148.1,106.61 226.28,111.41 59.06,12.6 120.38,15.45 183.96,8.53 41.97,-23.39 25.04,-64.55 -50.79,-123.46 -69.47,-45.4 -148.13,-61.15 -235.99,-47.28 -68.65,3.9 -149.52,-26.99 -242.62,-92.65z"/>
     <path class="fil0 str0" d="M315.85 4318.88c-81.33,-103.46 -130.94,-141.19 -148.83,-113.2 108.3,120.36 194.61,213.17 258.91,278.44 59.29,81.31 155.9,135.8 289.81,163.47 73.88,20.99 124.11,16.37 150.67,-13.88 -18.75,-20.9 -26.2,-43.9 -22.37,-68.98 -47.64,-112.89 -119.83,-171.4 -216.58,-175.56 -129.28,2.59 -233.14,-20.84 -311.61,-70.29z"/>
     <path class="fil0 str0" d="M24.31 3873.41c-25.41,6.45 -31.46,20.98 -18.16,43.57 117.66,115.17 215.06,215.44 292.18,300.84 52.84,59.96 127.26,99.52 223.25,118.67 65.82,-4.38 102.13,-23.33 108.95,-56.85 -67.06,-112.4 -149.94,-172.54 -248.65,-180.4 -80.71,25.32 -140.01,17.64 -177.9,-23.05 -65.95,-63.86 -125.84,-131.44 -179.67,-202.78z"/>
     <path class="fil0 str0" d="M514.42 4026.67c-18.44,4.55 -33.56,6.77 -45.39,6.64 -142.32,1.76 -230.04,-60.39 -263.16,-186.46 -5.26,-65.56 -15.32,-143.62 -30.19,-234.19 -32.38,-64.58 -64.85,-109.36 -97.38,-134.37 -20.11,-34.07 -14.06,-48.59 18.16,-43.56 43.19,75.27 113.77,144.48 211.73,207.62 145,69.14 214.56,174.85 208.67,317.15 4.06,23.5 3.25,45.89 -2.44,67.17z"/>
     <path class="fil0 str0" d="M718.98 3924.47c128.37,151.26 142.54,297.81 42.53,439.63 -36.71,-48.93 -69.17,-93.72 -97.38,-134.37 -59.76,-95.5 -81.41,-196.86 -64.96,-304.09 -9.85,-91.75 -38.87,-172.03 -87.07,-240.87 -53.05,-74.94 -87.93,-120.75 -104.63,-137.4 -8.5,-32.33 6.63,-34.54 45.38,-6.64 88.82,110.51 153.14,208.36 192.94,293.55 17.02,25.52 41.4,55.58 73.19,90.19z"/>
     <path class="fil0 str0" d="M1000.26 4271.9c70.77,175.61 79.4,318.43 25.89,428.43 -143.84,-126.9 -190.18,-288.28 -139.03,-484.14 -5.32,-76.88 -41.19,-188.43 -107.61,-334.67 -4.43,-30.26 2.43,-33.08 20.58,-8.47 86.09,193.66 152.82,326.61 200.17,398.85z"/>
     <path class="fil0 str0" d="M1185.36 4502.51c87.02,136.58 99.48,283.83 37.37,441.75 -125.15,-116.15 -161.02,-227.71 -107.6,-334.67 38.05,-96.52 48.37,-203.01 30.96,-319.5 11.61,-30.06 26.13,-24 43.56,18.17 7.32,75.19 5.88,139.93 -4.29,194.25z"/>
     <path class="fil0 str0" d="M1090.38 4403.23c14.89,5.03 27.2,-4.04 36.92,-27.21 -13.97,-151.22 8.45,-252.68 67.26,-304.36 56.37,-46.47 69.5,-77.93 39.37,-94.39 -67.7,50.29 -130.24,63.99 -187.6,41.09 -25.22,5.82 -32.28,22.76 -21.2,50.83 55.59,26.79 80.39,62.7 74.4,107.73 -26.49,90.25 -29.53,165.69 -9.15,226.31z"/>
     <path class="fil0 str0" d="M929.02 3747.83c128.43,46.88 191.95,98.94 190.56,156.19 10.76,49.45 -8.62,75.46 -58.11,78.04 -149.03,-66.8 -228.46,-230.61 -238.27,-491.44 29.09,-9.61 36.15,7.53 21.16,51.45 0.78,79.87 29,148.47 84.66,205.76z"/>
     <path class="fil0 str0" d="M1051.34 3474.97c93.11,104.03 120.3,209.12 81.59,315.29 -144.38,-80.96 -229.05,-218.55 -254.02,-412.77 -47.66,-190.56 -62.14,-298.88 -43.47,-324.97 31.86,27.09 50,85.79 54.4,176.11 0.72,105 54.55,187.12 161.5,246.34z"/>
     <path class="fil0 str0" d="M1405.87 3708.04c-65.34,151.04 -130.72,226.05 -196.13,225.05 -36.95,-130.07 -15.55,-229.1 64.23,-297.1 69.18,-49.02 125.88,-96.41 170.09,-142.15 41.99,-62.27 76.3,-110.47 102.91,-144.59 11.57,31.47 -10.63,84.71 -66.61,159.73 -31.91,43.59 -56.74,109.94 -74.49,199.06z"/>
     <path class="fil0 str0" d="M1481.11 3057.56c-48.58,285.2 -135.58,473.36 -260.99,564.5 -48.89,-154.32 -12.14,-303.77 110.28,-448.36 72.13,-45.56 119.95,-119.37 143.48,-221.43 12.23,-79.57 28.79,-146.53 49.68,-200.89 25.41,49.4 11.25,151.45 -42.45,306.18z"/>
     <path class="fil0 str0" d="M1426.08 2923.81c-38.23,166.32 -109.46,241.75 -213.68,226.25 13.68,-52.01 20.76,-103.05 21.23,-153.09 32.63,-117.36 91.98,-246.03 178.03,-386.02 21.08,-72.94 32.6,-195.98 34.6,-369.11 14.86,-32.81 24.14,-34.61 27.84,-5.44 8.5,367.51 -7.51,596.64 -48.02,687.41z"/>
     <path class="fil0 str0" d="M1036.36 2999.93c147.01,154.67 170.16,303.54 69.45,446.61 -122.39,-59.92 -186.68,-191.86 -192.91,-395.81 -18.8,-227.05 -24.4,-377.13 -16.81,-450.23 34.17,19.15 44.44,83.09 30.81,191.84 -0.17,99.49 36.32,168.69 109.46,207.59z"/>
     <path class="fil0 str0" d="M1101.21 2660.48c74.99,109.18 102.39,200.16 82.21,272.93 2.36,60.16 -19.83,79.32 -66.58,57.47 -109.72,-56.87 -156.07,-184.16 -139.05,-381.88 -6.03,-157.11 -14.87,-285.79 -26.51,-386.07 44.37,8.61 61.28,117.94 50.73,327.99 3.77,42.33 36.83,78.84 99.2,109.56z"/>
     <path class="fil0 str0" d="M1338.52 2316.24c45.92,147.81 19.66,278.91 -78.78,393.3 -151.28,-98.32 -196.22,-222.19 -134.83,-371.59 97.42,-130.63 144.25,-236.11 140.49,-316.43 -13.63,-66.99 -8.17,-107.33 16.37,-121.02 6.75,41.81 11.77,97.89 15.08,168.23 7.21,72.62 21.1,155.12 41.67,247.51z"/>
    </g>
   </g>
   <g id="_1357035520">
    <g>
     <g>
      <path class="fil0" d="M6638.7 2629.2c181.46,187.06 222.97,448.51 171.36,877.79 5.14,61.86 18.26,64.47 39.34,7.84 53.9,-549.84 3.27,-940.14 -151.93,-1170.83 182.82,227.15 250.76,528.06 203.82,902.74 67,-142.88 70.47,-431.13 10.42,-864.73 -52.03,-41.57 -84.72,-72.22 -98.09,-91.93 -5.87,-33.69 6.43,-42.77 36.9,-27.25 59.08,30.46 110.11,37.49 153.12,21.09 34.26,-14.14 46.78,-3.24 37.53,32.66 -33.65,33.24 -62.68,55.24 -87.1,66 44.74,227.69 56.94,403.18 36.59,526.44 1.75,34.83 8.43,46.14 19.99,33.88 78.32,-81.43 156.34,-159.73 234.05,-234.92 30.03,-29.9 43.14,-27.29 39.34,7.85 -63.54,143.53 -145.37,251.5 -245.5,323.88 -59.23,60.45 -90.46,135.5 -93.67,225.16 -15.59,84.02 -34.71,164.1 -57.36,240.26 -1.91,34.82 -21.89,120.58 -82.16,238.47 -8.58,31.08 -34.38,53.32 -48.34,116.2 -41.85,113.27 -80.31,219.38 -115.41,318.36 -16.45,-14.5 -29.96,-22.97 -40.56,-25.39 35.6,-64.6 68.23,-136.23 97.92,-214.87 39.26,-120.02 72.57,-284.2 81.3,-412 1.53,-16.01 6.4,-30.77 -4.72,-58.83 -106.63,-212.8 -212.61,-367.66 -317.94,-464.56 18.01,-33.2 49.9,-14.26 95.64,56.83 84.38,83.37 138.87,157.16 163.51,221.38 32.79,64.35 61.46,104.69 86,120.98 12.22,-383.8 -76.49,-662.11 -266.12,-834.93l102.07 62.43zm553.42 184.71c-55.97,103.21 -111.81,162.33 -167.53,177.4 34.37,-69.46 90.21,-128.6 167.53,-177.4z"/>
      <path id="1" class="fil1 str0" d="M6638.7 2629.2c181.46,187.06 222.97,448.51 171.36,877.79 5.14,61.86 18.26,64.47 39.34,7.84 53.9,-549.84 3.27,-940.14 -151.93,-1170.83 182.82,227.15 250.76,528.06 203.82,902.74 67,-142.88 70.47,-431.13 10.42,-864.73 -52.03,-41.57 -84.72,-72.22 -98.09,-91.93 -5.87,-33.69 6.43,-42.77 36.9,-27.25 59.08,30.46 110.11,37.49 153.12,21.09 34.26,-14.14 46.78,-3.24 37.53,32.66 -33.65,33.24 -62.68,55.24 -87.1,66 44.74,227.69 56.94,403.18 36.59,526.44 1.75,34.83 8.43,46.14 19.99,33.88 78.32,-81.43 156.34,-159.73 234.05,-234.92 30.03,-29.9 43.14,-27.29 39.34,7.85 -63.54,143.53 -145.37,251.5 -245.5,323.88 -59.23,60.45 -90.46,135.5 -93.67,225.16 -15.59,84.02 -34.71,164.1 -57.36,240.26 -1.91,34.82 -21.89,120.58 -82.16,238.47 -8.58,31.08 -34.38,53.32 -48.34,116.2 -41.85,113.27 -80.31,219.38 -115.41,318.36 -16.45,-14.5 -29.96,-22.97 -40.56,-25.39 35.6,-64.6 68.23,-136.23 97.92,-214.87 39.26,-120.02 72.57,-284.2 81.3,-412 1.53,-16.01 6.4,-30.77 -4.72,-58.83 -106.63,-212.8 -212.61,-367.66 -317.94,-464.56 18.01,-33.2 49.9,-14.26 95.64,56.83 84.38,83.37 138.87,157.16 163.51,221.38 32.79,64.35 61.46,104.69 86,120.98 12.22,-383.8 -76.49,-662.11 -266.12,-834.93m655.49 247.14c-55.97,103.21 -111.81,162.33 -167.53,177.4 34.37,-69.46 90.21,-128.6 167.53,-177.4z"/>
     </g>
     <path class="fil0 str0" d="M7222.4 1778.52c-16.74,-28.92 -29.04,-19.83 -36.9,27.26 -5.22,94.83 -35.44,167.47 -90.64,217.89 -84.34,26.4 -138.38,60.73 -162.12,102.96 -22.22,57.79 -9.09,94.48 39.4,110.11 102.15,-1.66 179.35,-91.66 231.61,-270.01 16.46,-68.55 22.69,-131.29 18.65,-188.21z"/>
     <path class="fil0 str0" d="M7125.43 1499.62c20.74,-129.15 39.27,-166.89 55.61,-113.19 -21.85,127.98 -34.9,227.63 -39.17,298.95 -2.64,100.51 -30.04,180 -82.16,238.46 -33.05,50.55 -74.58,95.76 -124.58,135.62 -46.27,12.96 -63.24,-28.18 -50.9,-123.41 17.34,-81.16 62.08,-147.74 134.22,-199.77 51.48,-45.58 87.14,-124.47 106.98,-236.66z"/>
     <path class="fil0 str0" d="M7047.17 1134.77c-15.14,-130.73 -6.5,-192.45 25.92,-185.19 7.89,161.73 11.99,288.4 12.31,380.02 15.18,99.48 -15.02,206.21 -90.6,320.16 -37.66,66.94 -76.57,99.04 -116.73,96.28 -1.41,-28.05 -12.32,-49.63 -32.71,-64.73 -45.68,-113.69 -35.65,-206.08 30.1,-277.17 93.6,-89.21 150.83,-179 171.71,-269.37z"/>
     <path class="fil0 str0" d="M6940.38 613.21c22.58,-13.32 37.11,-7.28 43.58,18.13 -2.42,164.62 -0.93,304.4 4.46,419.35 4.73,79.78 -20.23,160.28 -74.9,241.48 -49.81,43.25 -88.93,55.37 -117.37,36.38 -31.57,-127.02 -15.08,-228.09 49.45,-303.2 75.13,-38.86 111.81,-86.08 110.05,-141.66 1.85,-91.77 -3.24,-181.93 -15.27,-270.48z"/>
     <path class="fil0 str0" d="M6700.39 1067.19c16.3,-9.76 28.6,-18.84 36.9,-27.26 102.28,-98.99 120.77,-204.89 55.5,-317.71 -42.44,-50.24 -90.28,-112.74 -143.52,-187.51 -22.49,-68.65 -30.99,-123.31 -25.5,-163.98 -9.73,-38.35 -24.25,-44.39 -43.58,-18.13 22.36,83.85 21,182.69 -4.08,296.51 -54.24,151.21 -29.16,275.25 75.24,372.12 13.67,19.53 30.02,34.86 49.04,45.96z"/>
     <path class="fil0 str0" d="M6483.2 1138.71c15.41,197.79 108.56,311.81 279.45,342.05 -8.4,-60.59 -16.91,-115.25 -25.51,-163.98 -24.84,-109.88 -80.86,-197.09 -168.06,-261.62 -57.63,-72.07 -93.57,-149.51 -107.84,-232.31 -15.12,-90.57 -22.62,-147.65 -22.49,-171.24 -16.75,-28.93 -29.04,-19.85 -36.9,27.25 14.78,141.01 38.04,255.77 69.78,344.28 5.9,30.1 9.76,68.62 11.57,115.57z"/>
     <path class="fil0 str0" d="M6528.22 1583.46c73.45,174.51 167.91,281.97 283.37,322.37 12.73,-191.39 -68.03,-338.59 -242.29,-441.61 -50.36,-58.32 -103.48,-162.77 -159.32,-313.36 -18.16,-24.61 -25.03,-21.78 -20.57,8.48 75.27,198.11 121.55,339.49 138.81,424.12z"/>
     <path class="fil0 str0" d="M6559.25 1877.53c34.41,158.25 129.28,271.55 284.59,339.92 7.04,-170.6 -46.07,-275.06 -159.32,-313.37 -94.99,-41.72 -177.33,-110.04 -247.01,-205 -29.41,-13.16 -35.45,1.36 -18.13,43.58 47.77,58.53 94.39,103.48 139.87,134.87z"/>
     <path class="fil0 str0" d="M6556.75 1740.16c-7.03,14.06 -22.15,16.29 -45.38,6.69 -96.59,-117.19 -183.96,-173.42 -262.11,-168.69 -72.75,6.72 -104.22,-6.38 -94.43,-39.28 83.48,-11.98 137.52,-46.3 162.12,-102.96 22,-13.63 38.94,-6.58 50.84,21.15 -20.59,58.17 -12.9,101.13 23.07,128.88 82.36,45.41 137.66,96.82 165.89,154.21z"/>
     <path class="fil0 str0" d="M6209.69 1161.25c-58.16,123.74 -66.58,205.43 -25.28,245.09 27.2,42.68 59.27,47.5 96.22,14.47 58.75,-152.38 -0.24,-324.61 -176.98,-516.68 -27.42,13.67 -20.35,30.81 21.21,51.43 55.71,57.25 83.99,125.82 84.83,205.69z"/>
     <path class="fil0 str0" d="M5930.67 1053.7c7.17,139.43 61.89,233.19 164.15,281.28 45.47,-159.15 8.67,-316.46 -110.4,-471.93 -100.38,-168.84 -166.39,-255.93 -198.02,-261.3 -3.54,41.66 24.93,96.12 85.42,163.33 73.44,75.05 93.06,171.25 58.85,288.62z"/>
     <path class="fil0 str0" d="M5843.15 1468.86c152.76,61.19 252.01,68.4 297.74,21.62 -65.38,-118.37 -150.33,-173.59 -254.85,-165.67 -83.64,13.92 -157.26,20.21 -220.86,18.88 -73.67,-14.62 -131.97,-24.68 -174.89,-30.16 13.95,30.49 67.2,52.65 159.78,66.48 53.35,8.47 117.72,38.08 193.08,88.85z"/>
     <path class="fil0 str0" d="M5331.6 1060.08c235.35,168.24 429.64,240.54 582.86,216.92 -73.98,-143.99 -205.34,-224.2 -394.08,-240.63 -83.29,18.47 -169.23,-0.25 -257.81,-56.13 -64.73,-47.87 -123.64,-83.74 -176.75,-107.62 16.75,52.96 98.68,115.44 245.78,187.46z"/>
     <path class="fil0 str0" d="M5276.46 926.37c144.28,91.14 247.97,94.52 311.04,10.12 -46.34,-27.29 -87.31,-58.53 -122.89,-93.73 -105.83,-60.33 -238.58,-109.87 -398.26,-148.64 -66.34,-36.93 -161.18,-116.16 -284.54,-237.66 -33.65,-12.82 -41.51,-7.57 -23.59,15.75 252.81,266.88 425.56,418.26 518.24,454.16z"/>
     <path class="fil0 str0" d="M5606.74 705.93c4.57,213.34 92.98,335.32 265.25,365.95 44.67,-128.73 -2.61,-267.68 -141.84,-416.85 -146.56,-174.42 -248.29,-284.9 -305.17,-331.44 -10.77,37.65 26.97,90.27 113.25,157.87 70.19,70.51 93.02,145.33 68.51,224.47z"/>
     <path class="fil0 str0" d="M5321.61 510.63c23.66,130.32 68.3,214.21 133.88,251.65 40.69,44.37 69.93,42.34 87.74,-6.09 37.83,-117.65 -18.92,-240.67 -170.25,-369.03 -106.38,-115.78 -190.74,-213.36 -253.1,-292.75 -25.44,37.37 39.56,126.9 194.99,268.57 27.14,32.71 29.39,81.92 6.74,147.65z"/>
     <path class="fil0 str0" d="M4910.7 433.4c71.51,137.26 182.49,211.84 332.93,223.71 38.14,-176.34 -17.2,-295.93 -166,-358.75 -161.16,-24.12 -268.7,-66.02 -322.6,-125.68 -37.51,-57.16 -69.79,-81.95 -96.86,-74.38 24.66,34.43 60.6,77.78 107.79,130.04 46.02,56.64 94.27,124.98 144.74,205.06z"/>
    </g>
    <g id="_1357035040">
     <path class="fil0 str0" d="M4713.91 6182.28c71,-19.95 144.95,-46.93 221.82,-80.94 161.34,-80.21 254.14,-151.56 278.42,-214.04 -6.64,-59.44 -16.6,-140.23 -29.87,-242.42 0.4,-63.5 5.11,-121.95 14.13,-175.34 11.13,-53.6 12.97,-91.1 5.53,-112.49 2.13,-35.02 20.18,-25.33 54.13,29.07 92.97,148.18 98.27,301.55 15.86,460.11 21.86,13.88 38.87,7.02 51.07,-20.6 76.86,-225.27 112.88,-409.43 108.05,-552.47 36.3,-10.45 45.17,25.55 26.59,108.03 -0.23,118.61 -14.59,209.22 -43.07,271.82 -22.87,68.52 -31.5,117.24 -25.9,146.15 282.1,-260.51 338.99,-412.15 368.98,-677.95 42.7,-74.08 86.11,-90.36 109.41,-79.12 -6.03,260.54 -206.15,571.79 -548.29,836.14 -40.49,47.07 -33.13,58.24 22.01,33.55 429.69,-347.31 672.31,-657.17 727.84,-929.6 -33.63,289.63 -200.43,549.13 -500.38,778.52 148.83,-52.49 356.69,-252.22 623.58,-599.18 -6.87,-66.24 -7.95,-111.04 -3.29,-134.39 19.9,-27.82 34.99,-25.42 45.3,7.18 19.74,63.47 50.53,104.78 92.37,123.92 34.13,14.5 35.15,31.06 3.07,49.66 -47.29,-0.67 -83.34,-5.92 -108.14,-15.78 -130.89,191.61 -247.39,323.41 -349.51,395.37 -23.6,25.68 -26.98,38.35 -10.12,38.01 112.96,-1.3 223.5,-0.63 331.6,2.01 42.38,0.43 49.71,11.61 22,33.55 -146.86,55.41 -281.21,72.81 -403.03,52.23 -84.64,0.18 -160.04,30.59 -226.19,91.19 -70.81,47.82 -141.29,90.38 -211.45,127.66 -30.65,14.82 -24.3,23.57 19.06,26.25 72.47,-4.84 147.52,12.96 225.1,53.43 39.94,0.87 74.06,15.38 102.38,43.54 -42.82,11.81 -85.18,11.93 -127.09,0.35 -36.87,6.2 -74.32,18.48 -112.38,36.83 -129.51,50.07 -241.06,32.85 -334.66,-51.66 -23.22,-2.79 -62.12,12.89 -116.73,47.05 -110.08,49.63 -212.69,96.67 -307.85,141.08 -1.19,-21.9 -4.65,-37.46 -10.35,-46.72zm508.49 -484.91c4.18,48.74 13.04,84.75 26.59,108.02 53.52,-125.67 64.94,-223.57 34.26,-293.71 -9.33,-44.03 -24.98,-68.82 -46.96,-74.37 -21.17,106.92 -25.8,193.6 -13.89,260.06zm2.46 363.74c98.98,42.78 205.59,33.72 319.84,-27.18 -118.89,-53.43 -226.52,-60.93 -322.89,-22.49 -32.11,18.59 -31.08,35.14 3.05,49.67zm857.86 -396.77c-112.81,32.52 -194.13,34.19 -243.94,5.04 73.6,-24.23 154.92,-25.92 243.94,-5.04z"/>
     <path class="fil0 str0" d="M6841.87 4959.61c8.86,-32.23 -6.24,-34.62 -45.31,-7.18 -71.26,62.8 -144.22,92.21 -218.88,88.25 -77.98,-41.59 -140.35,-56.02 -187.1,-43.31 -56.77,24.69 -73.72,59.79 -50.83,105.31 72.84,71.64 191.13,63.52 354.9,-24.34 60.4,-36.36 109.49,-75.93 147.22,-118.73z"/>
     <path class="fil0 str0" d="M6972.61 4694.85c106.59,-75.82 146.48,-89.08 119.68,-39.78 -106.54,74.21 -186.71,134.81 -240.54,181.81 -73.48,68.62 -149.35,104.85 -227.58,108.72 -59.21,11.9 -120.56,14.02 -184.05,6.35 -41.69,-23.89 -24.27,-64.84 52.25,-122.85 70,-44.58 148.85,-59.39 236.53,-44.48 68.6,4.71 149.83,-25.21 243.71,-89.77z"/>
     <path class="fil0 str0" d="M7177.73 4383.14c82.55,-102.5 132.6,-139.64 150.16,-111.44 -109.72,119.08 -197.12,210.86 -262.19,275.35 -60.25,80.6 -157.5,133.95 -291.73,160.03 -74.12,20.11 -124.29,14.9 -150.5,-15.66 19,-20.69 26.72,-43.6 23.19,-68.72 48.98,-112.31 121.85,-169.96 218.65,-172.97 129.24,4.12 233.37,-18.08 312.42,-66.59z"/>
     <path class="fil0 str0" d="M7474.53 3941.16c25.33,6.74 31.21,21.34 17.65,43.77 -119.02,113.77 -217.6,212.88 -295.73,297.36 -53.55,59.33 -128.43,98.01 -224.65,116.01 -65.76,-5.16 -101.85,-24.53 -108.26,-58.13 68.38,-111.6 151.98,-170.75 250.77,-177.44 80.4,26.28 139.79,19.29 178.16,-20.94 66.7,-63.07 127.39,-129.95 182.06,-200.63z"/>
     <path class="fil0 str0" d="M6982.63 4088.59c18.39,4.77 33.49,7.16 45.31,7.17 142.3,3.45 230.75,-57.65 265.36,-183.32 6.04,-65.49 17.02,-143.43 32.96,-233.82 33.15,-64.18 66.14,-108.58 98.97,-133.2 20.51,-33.83 14.63,-48.42 -17.65,-43.77 -44.07,74.75 -115.47,143.12 -214.17,205.09 -145.81,67.42 -216.62,172.3 -212.42,314.66 -4.33,23.44 -3.78,45.84 1.64,67.19z"/>
     <path class="fil0 str0" d="M6779.3 3983.97c-130.15,149.73 -146.06,296.1 -47.73,439.1 37.28,-48.49 70.27,-92.9 98.97,-133.21 60.88,-94.78 83.73,-195.88 68.55,-303.3 10.94,-91.62 40.91,-171.56 89.92,-239.82 53.94,-74.31 89.36,-119.69 106.26,-136.14 8.87,-32.23 -6.23,-34.62 -45.3,-7.19 -90.13,109.45 -155.6,206.54 -196.42,291.25 -17.31,25.31 -42.05,55.08 -74.25,89.31z"/>
     <path class="fil0 str0" d="M6493.92 4328.04c-72.84,174.76 -83.17,317.47 -30.96,428.09 145.33,-125.18 193.58,-286 144.76,-482.45 6.23,-76.81 43.41,-187.94 111.56,-333.37 4.8,-30.21 -2.03,-33.11 -20.47,-8.71 -88.39,192.62 -156.68,324.77 -204.89,396.44z"/>
     <path class="fil0 str0" d="M6306.11 4556.44c-88.64,135.54 -102.84,282.63 -42.62,441.27 126.53,-114.65 163.72,-225.78 111.57,-333.37 -36.9,-96.96 -45.96,-203.57 -27.17,-319.84 -11.26,-30.19 -25.84,-24.31 -43.78,17.65 -8.2,75.1 -7.54,139.86 2,194.29z"/>
     <path class="fil0 str0" d="M6402.25 4458.3c-14.94,4.85 -27.14,-4.36 -36.59,-27.65 15.76,-151.05 -5.46,-252.76 -63.65,-305.14 -55.82,-47.13 -68.56,-78.74 -38.24,-94.85 67.09,51.09 129.46,65.53 187.1,43.31 25.14,6.12 32.01,23.14 20.59,51.08 -55.9,26.13 -81.13,61.75 -75.67,106.84 25.41,90.56 27.56,166.03 6.46,226.41z"/>
     <path class="fil0 str0" d="M6571.38 3804.86c-128.98,45.35 -193.11,96.65 -192.41,153.91 -11.34,49.32 7.73,75.56 57.19,78.73 149.81,-65.03 231.17,-227.89 244.08,-488.58 -28.98,-9.96 -36.24,7.1 -21.78,51.19 -1.72,79.86 -30.75,148.12 -87.08,204.75z"/>
     <path class="fil0 str0" d="M6452.3 3530.56c-94.34,102.92 -122.78,207.68 -85.32,314.3 145.32,-79.24 231.62,-215.81 258.9,-409.73 49.91,-189.98 65.67,-298.12 47.31,-324.43 -32.18,26.71 -51.01,85.2 -56.49,175.45 -1.96,104.99 -56.76,186.46 -164.4,244.41z"/>
     <path class="fil0 str0" d="M6095.03 3759.41c63.55,151.8 128.03,227.59 193.45,227.36 38.49,-129.63 18.26,-228.9 -60.71,-297.84 -68.59,-49.84 -124.72,-97.9 -168.39,-144.16 -41.25,-62.76 -74.98,-111.36 -101.19,-145.79 -11.94,31.33 9.63,84.82 64.72,160.5 31.39,43.97 55.43,110.61 72.12,199.93z"/>
     <path class="fil0 str0" d="M6027.51 3108.09c45.19,285.75 129.95,474.93 254.27,567.55 50.72,-153.73 15.74,-303.61 -104.95,-449.64 -71.59,-46.41 -118.53,-120.78 -140.85,-223.11 -11.29,-79.71 -27.05,-146.86 -47.29,-201.46 -25.99,49.09 -13.05,151.3 38.82,306.66z"/>
     <path class="fil0 str0" d="M6084.12 2974.99c36.26,166.77 106.59,243.03 210.98,228.78 -13.06,-52.17 -19.54,-103.29 -19.41,-153.34 -31.24,-117.74 -89.06,-247.1 -173.44,-388.1 -20.21,-73.18 -30.28,-196.35 -30.23,-369.5 -14.46,-32.97 -23.72,-34.89 -27.77,-5.76 -12.85,367.38 0.44,596.69 39.87,687.92z"/>
     <path class="fil0 str0" d="M6472.91 3055.74c-148.83,152.91 -173.75,301.5 -74.74,445.75 123.09,-58.46 188.94,-189.63 197.59,-393.5 21.49,-226.81 28.87,-376.81 22.14,-449.99 -34.39,18.73 -45.42,82.55 -33.08,191.46 -1.01,99.48 -38.31,168.24 -111.91,206.28z"/>
     <path class="fil0 str0" d="M6412.09 2715.53c-76.28,108.29 -104.76,198.94 -85.44,271.95 -3.08,60.13 18.88,79.54 65.89,58.25 110.39,-55.56 158.25,-182.3 143.57,-380.2 7.89,-157.03 18.26,-285.6 31.09,-385.74 -44.48,8.09 -62.68,117.21 -54.62,327.37 -4.27,42.28 -37.76,78.4 -100.49,108.37z"/>
     <path class="fil0 str0" d="M6178.87 2368.51c-47.66,147.25 -22.96,278.66 74.12,394.21 152.43,-96.52 198.84,-219.85 139.22,-369.97 -95.86,-131.77 -141.44,-237.8 -136.72,-318.07 14.42,-66.83 9.44,-107.23 -14.94,-121.21 -7.24,41.73 -12.93,97.75 -17.07,168.04 -8.08,72.53 -22.94,154.86 -44.61,247z"/>
    </g>
   </g>
   <g>
    <polygon class="fil2" points="6730.18,4245.29 768.38,4245.29 768.38,6018.33 6730.18,6018.33 "/>
    <polygon class="fil3 str1" points="768.38,4245.29 6730.18,4245.29 6730.18,6018.33 768.38,6018.33 "/>
   </g>
   <path class="fil4" d="M1887.61 4735.4c44.94,9.65 78.61,24.85 101.01,46.09 30.88,29.42 46.41,65.38 46.41,107.87 0,32.36 -10.14,63.42 -30.56,93 -20.43,29.59 -48.38,51.16 -84.01,64.72 -35.47,13.57 -89.74,20.43 -162.79,20.43l-306.13 0 0 -17.65 24.2 0c26.96,0 46.25,-8.67 58.01,-25.82 7.36,-11.12 10.95,-34.98 10.95,-71.26l0 -420.7c0,-40.21 -4.57,-65.54 -13.73,-76 -12.42,-14.06 -30.72,-21.09 -55.23,-21.09l-24.2 0 0 -17.65 280.14 0c52.3,0 94.14,3.77 125.69,11.45 47.89,11.6 84.34,31.87 109.5,61.12 25.17,29.26 37.76,62.77 37.76,100.84 0,32.53 -9.81,61.62 -29.59,87.45 -19.77,25.66 -48.86,44.78 -87.43,57.2zm-250.73 -26.64c11.78,2.29 25.34,3.92 40.38,5.07 15.2,1.14 31.87,1.63 50.01,1.63 46.58,0 81.72,-5.07 105.09,-15.04 23.37,-9.96 41.35,-25.33 53.77,-46.08 12.26,-20.6 18.48,-43.16 18.48,-67.67 0,-37.92 -15.53,-70.12 -46.43,-96.92 -30.88,-26.64 -75.99,-40.04 -135.16,-40.04 -31.87,0 -60.64,3.43 -86.14,10.45l0 248.6zm0 311.52c37.1,8.66 73.89,12.91 110,12.91 58.02,0 102.32,-13.07 132.72,-39.06 30.4,-25.99 45.6,-58.19 45.6,-96.43 0,-25.17 -7.03,-49.52 -21.25,-72.73 -14.06,-23.37 -36.61,-41.68 -67.5,-55.08 -30.89,-13.4 -69.3,-20.11 -114.9,-20.11 -19.78,0 -36.62,0.33 -50.66,0.99 -14.06,0.65 -25.34,1.79 -34.01,3.26l0 266.25zm1054.04 47.23l-174.07 0 -220.81 -304c-15.85,0.66 -28.76,0.99 -38.73,0.99 -4.09,0 -8.51,-0.17 -13.08,-0.33 -4.74,-0.17 -9.47,-0.33 -14.55,-0.66l0 189.27c0,40.86 4.42,66.19 13.41,76 12.09,14.05 30.24,21.08 54.42,21.08l25.33 0 0 17.65 -278.5 0 0 -17.65 24.35 0c27.46,0 47.08,-8.98 58.85,-26.8 6.7,-9.81 9.96,-33.34 9.96,-70.28l0 -420.7c0,-40.86 -4.4,-66.19 -13.4,-76 -12.42,-14.06 -30.88,-21.09 -55.41,-21.09l-24.35 0 0 -17.65 236.67 0c69.13,0 119.96,5.08 152.65,15.04 32.85,10.13 60.64,28.76 83.35,55.74 22.89,26.96 34.32,59.16 34.32,96.59 0,40.04 -13.07,74.69 -39.05,104.11 -26.15,29.42 -66.36,50.17 -121.11,62.43l134.51 186.16c30.73,42.83 57.03,71.43 79.1,85.49 21.91,14.21 50.67,23.04 86.14,26.96l0 17.65zm-461.24 -334.39c6.05,0 11.28,0 15.7,0.15 4.41,0.17 8,0.33 10.78,0.33 61.29,0 107.55,-13.4 138.6,-40.21 31.21,-26.96 46.74,-61.12 46.74,-102.64 0,-40.52 -12.58,-73.54 -37.58,-99.04 -25.17,-25.33 -58.52,-38.08 -99.87,-38.08 -18.31,0 -43.14,2.94 -74.37,8.82l0 270.67zm749.05 -330.48c84.17,0 157.23,32.03 218.85,96.1 61.78,64.06 92.67,143.99 92.67,239.93 0,98.72 -31.06,180.6 -93.32,245.82 -62.11,65.21 -137.45,97.74 -225.88,97.74 -89.24,0 -164.25,-31.88 -225.05,-95.46 -60.81,-63.58 -91.21,-145.79 -91.21,-246.79 0,-103.13 35.15,-187.3 105.26,-252.52 60.96,-56.55 133.86,-84.82 218.68,-84.82zm-9.15 34.32c-57.86,0 -104.44,21.57 -139.41,64.72 -43.65,53.77 -65.55,132.39 -65.55,236.01 0,106.07 22.56,187.8 67.84,245 34.81,43.47 80.57,65.21 137.61,65.21 60.96,0 111.14,-23.86 150.86,-71.42 39.71,-47.73 59.49,-122.75 59.49,-225.38 0,-111.32 -21.9,-194.34 -65.54,-248.93 -34.98,-43.48 -83.36,-65.21 -145.3,-65.21zm865.58 -19.62l6.87 152.82 -18.14 0c-3.61,-26.8 -8.34,-46.08 -14.39,-57.53 -9.97,-18.47 -23.05,-32.2 -39.55,-40.86 -16.51,-8.83 -38.08,-13.24 -64.89,-13.24l-91.52 0 0 496.21c0,40.04 4.25,65.05 12.9,75.02 12.1,13.4 30.73,20.1 55.91,20.1l22.38 0 0 17.65 -276.53 0 0 -17.65 23.37 0c27.78,0 47.39,-8.34 59.16,-25.01 7.02,-10.29 10.63,-33.66 10.63,-70.11l0 -496.21 -77.97 0c-30.39,0 -51.98,2.29 -64.72,6.7 -16.67,6.05 -30.73,17.66 -42.66,34.98 -11.77,17.17 -18.8,40.54 -21.08,69.95l-18.15 0 6.87 -152.82 531.51 0zm171.93 302.05l301.07 0 0 -187.31c0,-33.01 -2.13,-54.75 -6.21,-65.22 -3.28,-7.84 -9.98,-14.7 -20.27,-20.42 -13.73,-7.68 -28.28,-11.45 -43.64,-11.45l-23.05 0 0 -17.65 278.51 0 0 17.65 -23.05 0c-15.36,0 -29.91,3.6 -43.64,10.95 -10.29,5.08 -17.32,12.75 -20.92,23.05 -3.76,10.3 -5.56,31.38 -5.56,63.09l0 420.7c0,32.85 2.13,54.59 6.22,65.04 3.27,8.02 9.81,14.88 19.78,20.61 14.05,7.67 28.76,11.43 44.12,11.43l23.05 0 0 17.65 -278.51 0 0 -17.65 23.05 0c26.64,0 45.93,-7.84 58.18,-23.37 8.01,-10.29 11.94,-34.81 11.94,-73.71l0 -198.09 -301.07 0 0 198.09c0,32.85 2.13,54.59 6.22,65.04 3.11,8.02 9.81,14.88 20.1,20.61 13.73,7.67 28.11,11.43 43.48,11.43l23.37 0 0 17.65 -278.51 0 0 -17.65 23.06 0c26.96,0 46.41,-7.84 58.67,-23.37 7.67,-10.29 11.44,-34.81 11.44,-73.71l0 -420.7c0,-33.01 -2.13,-54.75 -6.21,-65.22 -3.28,-7.84 -9.81,-14.7 -19.78,-20.42 -14.05,-7.68 -28.77,-11.45 -44.12,-11.45l-23.06 0 0 -17.65 278.51 0 0 17.65 -23.37 0c-15.37,0 -29.75,3.6 -43.48,10.95 -9.96,5.08 -16.83,12.75 -20.6,23.05 -3.75,10.3 -5.72,31.38 -5.72,63.09l0 187.31zm649.85 -266.74l0 256.93 143.17 0c37.1,0 61.78,-5.56 74.2,-16.67 16.68,-14.71 25.83,-40.54 27.79,-77.48l17.65 0 0 226.53 -17.65 0c-4.41,-31.71 -8.99,-52.14 -13.41,-61.12 -5.72,-11.12 -15.2,-19.95 -28.27,-26.32 -13.08,-6.37 -33.18,-9.64 -60.31,-9.64l-143.17 0 0 214.43c0,28.77 1.3,46.26 3.75,52.47 2.62,6.21 7.03,11.28 13.4,14.87 6.38,3.76 18.64,5.56 36.45,5.56l110 0c36.61,0 63.25,-2.61 79.92,-7.68 16.51,-5.07 32.53,-15.2 47.73,-30.23 19.78,-19.78 40.04,-49.69 60.8,-89.57l19.61 0 -56.06 162.78 -500.94 0 0 -17.65 23.04 0c15.36,0 29.91,-3.76 43.63,-11.11 10.31,-5.07 17.34,-12.75 20.93,-23.05 3.75,-10.29 5.55,-31.21 5.55,-62.92l0 -422.66c0,-41.19 -4.08,-66.52 -12.42,-76 -11.61,-12.75 -30.73,-19.13 -57.69,-19.13l-23.04 0 0 -17.65 501.1 0 6.87 143.18 -18.63 0c-6.7,-34.49 -14.06,-58.19 -22.23,-71.1 -8.17,-12.91 -20.27,-22.72 -36.13,-29.58 -12.75,-4.74 -35.3,-7.19 -67.5,-7.19l-178.14 0zm996 614.86l-174.06 0 -220.81 -304c-15.86,0.66 -28.76,0.99 -38.73,0.99 -4.09,0 -8.51,-0.17 -13.09,-0.33 -4.73,-0.17 -9.47,-0.33 -14.54,-0.66l0 189.27c0,40.86 4.42,66.19 13.4,76 12.09,14.05 30.24,21.08 54.43,21.08l25.33 0 0 17.65 -278.5 0 0 -17.65 24.35 0c27.46,0 47.08,-8.98 58.84,-26.8 6.7,-9.81 9.97,-33.34 9.97,-70.28l0 -420.7c0,-40.86 -4.41,-66.19 -13.4,-76 -12.42,-14.06 -30.89,-21.09 -55.41,-21.09l-24.35 0 0 -17.65 236.67 0c69.12,0 119.95,5.08 152.65,15.04 32.85,10.13 60.63,28.76 83.35,55.74 22.88,26.96 34.32,59.16 34.32,96.59 0,40.04 -13.08,74.69 -39.06,104.11 -26.15,29.42 -66.35,50.17 -121.11,62.43l134.52 186.16c30.72,42.83 57.03,71.43 79.1,85.49 21.9,14.21 50.66,23.04 86.13,26.96l0 17.65zm-461.23 -334.39c6.04,0 11.28,0 15.69,0.15 4.41,0.17 8.01,0.33 10.79,0.33 61.29,0 107.54,-13.4 138.6,-40.21 31.21,-26.96 46.74,-61.12 46.74,-102.64 0,-40.52 -12.58,-73.54 -37.59,-99.04 -25.17,-25.33 -58.51,-38.08 -99.86,-38.08 -18.31,0 -43.15,2.94 -74.37,8.82l0 270.67zm840.9 -330.48l0 224.57 -17.65 0c-5.72,-43.16 -16.01,-77.48 -30.88,-102.97 -14.89,-25.5 -36.13,-45.77 -63.75,-60.8 -27.46,-15.04 -55.89,-22.56 -85.32,-22.56 -33.34,0 -60.8,10.14 -82.53,30.4 -21.74,20.26 -32.69,43.47 -32.69,69.3 0,19.77 6.86,37.92 20.59,54.26 19.94,23.87 67.01,55.9 141.54,95.78 60.8,32.69 102.31,57.7 124.54,75.02 22.23,17.48 39.4,37.91 51.32,61.61 11.93,23.71 17.98,48.38 17.98,74.37 0,49.19 -19.12,91.52 -57.21,127.16 -38.24,35.63 -87.43,53.45 -147.41,53.45 -18.96,0 -36.62,-1.47 -53.29,-4.42 -9.97,-1.63 -30.39,-7.52 -61.62,-17.65 -31.05,-10.14 -50.83,-15.2 -59.16,-15.2 -8.01,0 -14.38,2.45 -18.96,7.19 -4.58,4.9 -8.01,14.88 -10.29,30.08l-17.66 0 0 -222.61 17.66 0c8.33,46.58 19.44,81.55 33.5,104.59 14.05,23.22 35.63,42.51 64.55,57.71 28.93,15.35 60.64,23.04 95.13,23.04 39.88,0 71.59,-10.63 94.63,-31.71 23.21,-21.25 34.82,-46.26 34.82,-75.02 0,-16.02 -4.42,-32.19 -13.08,-48.54 -8.82,-16.34 -22.39,-31.54 -40.86,-45.76 -12.42,-9.65 -46.58,-29.91 -102.31,-60.97 -55.74,-30.89 -95.45,-55.73 -118.99,-74.2 -23.54,-18.47 -41.52,-39.06 -53.61,-61.29 -12.26,-22.39 -18.31,-47.07 -18.31,-73.87 0,-46.58 17.98,-86.79 53.78,-120.46 35.79,-33.67 81.56,-50.5 136.8,-50.5 34.65,0 71.26,8.5 110,25.33 17.98,8.01 30.56,11.93 37.91,11.93 8.34,0 15.2,-2.45 20.43,-7.36 5.24,-5.06 9.48,-14.87 12.75,-29.9l17.65 0z"/>
   <path class="fil4" d="M2616.15 5449.86c44.94,9.65 78.61,24.85 101.01,46.1 30.88,29.41 46.41,65.37 46.41,107.86 0,32.37 -10.14,63.42 -30.56,93.01 -20.43,29.58 -48.38,51.15 -84.01,64.72 -35.47,13.57 -89.73,20.43 -162.79,20.43l-306.13 0 0 -17.65 24.2 0c26.96,0 46.25,-8.67 58.02,-25.83 7.35,-11.12 10.95,-34.97 10.95,-71.26l0 -420.7c0,-40.21 -4.58,-65.53 -13.73,-76 -12.42,-14.05 -30.73,-21.08 -55.24,-21.08l-24.2 0 0 -17.65 280.15 0c52.3,0 94.13,3.76 125.68,11.44 47.89,11.6 84.34,31.87 109.51,61.13 25.16,29.26 37.75,62.76 37.75,100.83 0,32.54 -9.81,61.63 -29.58,87.45 -19.78,25.66 -48.87,44.78 -87.44,57.2zm-250.72 -26.63c11.77,2.28 25.33,3.92 40.37,5.06 15.2,1.14 31.87,1.64 50.01,1.64 46.58,0 81.72,-5.08 105.09,-15.04 23.37,-9.97 41.35,-25.34 53.77,-46.09 12.26,-20.6 18.48,-43.15 18.48,-67.67 0,-37.92 -15.53,-70.12 -46.42,-96.92 -30.89,-26.64 -76,-40.04 -135.17,-40.04 -31.87,0 -60.64,3.44 -86.13,10.45l0 248.61zm0 311.51c37.1,8.67 73.88,12.92 110,12.92 58.01,0 102.31,-13.08 132.71,-39.07 30.4,-25.99 45.6,-58.19 45.6,-96.43 0,-25.17 -7.03,-49.52 -21.25,-72.73 -14.05,-23.37 -36.61,-41.68 -67.5,-55.08 -30.89,-13.4 -69.3,-20.1 -114.9,-20.1 -19.78,0 -36.61,0.33 -50.66,0.98 -14.06,0.66 -25.34,1.8 -34,3.27l0 266.24zm693.8 29.59l0 17.65 -278.51 0 0 -17.65 23.06 0c26.96,0 46.41,-7.85 58.67,-23.37 7.68,-10.3 11.44,-34.82 11.44,-73.72l0 -420.7c0,-32.85 -2.13,-54.58 -6.21,-65.05 -3.26,-8.01 -9.81,-14.87 -19.77,-20.59 -14.06,-7.68 -28.77,-11.44 -44.13,-11.44l-23.06 0 0 -17.65 278.51 0 0 17.65 -23.37 0c-26.48,0 -45.76,7.84 -57.86,23.37 -8,10.3 -11.93,34.81 -11.93,73.71l0 420.7c0,32.85 2.13,54.59 6.21,65.05 3.11,8.01 9.81,14.87 20.11,20.6 13.73,7.67 28.11,11.44 43.47,11.44l23.37 0zm625.49 17.65l-174.06 0 -220.82 -304c-15.85,0.65 -28.76,0.98 -38.73,0.98 -4.09,0 -8.5,-0.17 -13.08,-0.33 -4.74,-0.17 -9.47,-0.32 -14.55,-0.65l0 189.26c0,40.86 4.42,66.19 13.41,76 12.09,14.06 30.24,21.09 54.42,21.09l25.34 0 0 17.65 -278.51 0 0 -17.65 24.36 0c27.46,0 47.07,-8.99 58.84,-26.81 6.7,-9.81 9.96,-33.34 9.96,-70.28l0 -420.7c0,-40.86 -4.4,-66.19 -13.4,-76 -12.42,-14.05 -30.88,-21.08 -55.4,-21.08l-24.36 0 0 -17.65 236.67 0c69.13,0 119.96,5.07 152.65,15.04 32.85,10.12 60.64,28.76 83.35,55.73 22.89,26.96 34.32,59.16 34.32,96.59 0,40.05 -13.07,74.7 -39.05,104.11 -26.15,29.43 -66.36,50.18 -121.11,62.44l134.51 186.15c30.73,42.83 57.04,71.43 79.11,85.49 21.9,14.22 50.66,23.04 86.13,26.97l0 17.65zm-461.24 -334.4c6.05,0 11.28,0 15.7,0.16 4.41,0.17 8,0.33 10.78,0.33 61.3,0 107.55,-13.41 138.6,-40.21 31.22,-26.97 46.74,-61.13 46.74,-102.65 0,-40.52 -12.57,-73.54 -37.58,-99.04 -25.17,-25.33 -58.52,-38.08 -99.87,-38.08 -18.3,0 -43.14,2.94 -74.37,8.83l0 270.66zm1054.04 334.4l-174.07 0 -220.81 -304c-15.85,0.65 -28.76,0.98 -38.73,0.98 -4.09,0 -8.51,-0.17 -13.08,-0.33 -4.74,-0.17 -9.47,-0.32 -14.55,-0.65l0 189.26c0,40.86 4.42,66.19 13.41,76 12.09,14.06 30.24,21.09 54.42,21.09l25.34 0 0 17.65 -278.51 0 0 -17.65 24.35 0c27.46,0 47.08,-8.99 58.85,-26.81 6.7,-9.81 9.96,-33.34 9.96,-70.28l0 -420.7c0,-40.86 -4.4,-66.19 -13.4,-76 -12.42,-14.05 -30.88,-21.08 -55.41,-21.08l-24.35 0 0 -17.65 236.67 0c69.13,0 119.96,5.07 152.65,15.04 32.85,10.12 60.64,28.76 83.35,55.73 22.89,26.96 34.32,59.16 34.32,96.59 0,40.05 -13.07,74.7 -39.05,104.11 -26.15,29.43 -66.36,50.18 -121.11,62.44l134.51 186.15c30.73,42.83 57.04,71.43 79.1,85.49 21.91,14.22 50.67,23.04 86.14,26.97l0 17.65zm-461.24 -334.4c6.05,0 11.28,0 15.7,0.16 4.41,0.17 8,0.33 10.78,0.33 61.29,0 107.55,-13.41 138.6,-40.21 31.22,-26.97 46.74,-61.13 46.74,-102.65 0,-40.52 -12.58,-73.54 -37.58,-99.04 -25.17,-25.33 -58.52,-38.08 -99.87,-38.08 -18.31,0 -43.14,2.94 -74.37,8.83l0 270.66zm840.09 117.67l-251.87 0 -43.47 101.83c-10.78,25.17 -16.34,44.13 -16.34,56.55 0,9.8 4.74,18.63 14.22,26.15 9.32,7.36 29.74,12.26 60.96,14.55l0 17.65 -204.96 0 0 -17.65c27.14,-4.74 44.63,-10.96 52.63,-18.64 16.35,-15.36 34.33,-46.58 54.11,-93.49l228.64 -535.1 16.19 0 226.03 540.83c18.15,43.47 34.66,71.58 49.53,84.65 14.87,12.92 35.46,20.11 62.11,21.75l0 17.65 -256.28 0 0 -17.65c25.83,-1.32 43.31,-5.56 52.46,-12.92 9.16,-7.35 13.57,-16.34 13.57,-26.96 0,-14.06 -6.37,-36.29 -19.12,-66.69l-38.41 -92.51zm-14.71 -35.3l-109.5 -262.32 -112.46 262.32 221.96 0zm662.42 -412.85l0 224.57 -17.65 0c-5.72,-43.16 -16.01,-77.48 -30.89,-102.97 -14.88,-25.5 -36.12,-45.77 -63.74,-60.8 -27.46,-15.04 -55.9,-22.56 -85.32,-22.56 -33.34,0 -60.8,10.14 -82.53,30.4 -21.74,20.27 -32.69,43.48 -32.69,69.3 0,19.78 6.86,37.92 20.59,54.26 19.94,23.87 67.01,55.9 141.54,95.78 60.8,32.69 102.31,57.7 124.54,75.02 22.23,17.49 39.4,37.92 51.32,61.61 11.93,23.71 17.98,48.38 17.98,74.37 0,49.2 -19.12,91.53 -57.21,127.16 -38.24,35.63 -87.43,53.45 -147.41,53.45 -18.97,0 -36.62,-1.47 -53.29,-4.42 -9.97,-1.63 -30.4,-7.51 -61.62,-17.65 -31.05,-10.14 -50.83,-15.2 -59.16,-15.2 -8.01,0 -14.38,2.45 -18.96,7.19 -4.58,4.9 -8.01,14.88 -10.3,30.08l-17.65 0 0 -222.61 17.65 0c8.33,46.58 19.45,81.56 33.51,104.6 14.05,23.21 35.63,42.5 64.55,57.7 28.93,15.36 60.64,23.04 95.13,23.04 39.88,0 71.59,-10.62 94.63,-31.71 23.21,-21.24 34.82,-46.25 34.82,-75.01 0,-16.03 -4.42,-32.2 -13.08,-48.55 -8.82,-16.34 -22.39,-31.54 -40.86,-45.76 -12.42,-9.65 -46.58,-29.91 -102.32,-60.96 -55.73,-30.9 -95.44,-55.74 -118.98,-74.2 -23.54,-18.48 -41.52,-39.07 -53.61,-61.3 -12.26,-22.39 -18.31,-47.07 -18.31,-73.87 0,-46.58 17.98,-86.79 53.78,-120.45 35.79,-33.68 81.56,-50.51 136.8,-50.51 34.65,0 71.26,8.5 110,25.33 17.98,8.01 30.55,11.93 37.91,11.93 8.34,0 15.2,-2.45 20.43,-7.35 5.23,-5.07 9.48,-14.88 12.75,-29.91l17.65 0z"/>
   <path class="fil1 str2" d="M3584.03 343.3c38.42,147.62 30.01,237.29 -25.21,268.98 -6.84,-92.44 -40.45,-159.69 -100.87,-201.73 -25.31,-60.19 -14.1,-93.82 33.62,-100.87 42.4,-2.04 73.22,9.17 92.46,33.62z"/>
   <path class="fil1 str2" d="M3903.45 351.71c-47.8,-11.17 -89.83,0.04 -126.08,33.62 15.33,-76.45 34.95,-124.09 58.83,-142.9 41.86,-29.89 83.89,-21.48 126.08,25.22 -0.57,47.38 -20.17,75.41 -58.83,84.06z"/>
   <path class="fil1 str2" d="M3853.02 570.25c-39.12,3.59 -64.34,20.4 -75.65,50.43 -14.63,-29.8 -11.83,-52.21 8.39,-67.24 39.29,-18.69 61.71,-13.08 67.26,16.81z"/>
   <path class="fil5" d="M3558.82 612.28c55.22,-31.69 63.63,-121.36 25.21,-268.98 -19.24,-24.45 -50.06,-35.66 -92.46,-33.62 -47.72,7.05 -58.93,40.68 -33.62,100.87 60.42,42.04 94.03,109.29 100.87,201.73z"/>
   <path class="fil5" d="M3777.37 385.33c36.25,-33.58 78.28,-44.79 126.08,-33.62 38.66,-8.65 58.26,-36.68 58.83,-84.06 -42.19,-46.7 -84.22,-55.11 -126.08,-25.22 -23.88,18.81 -43.5,66.45 -58.83,142.9z"/>
   <path class="fil5" d="M3853.02 570.25c-5.55,-29.89 -27.97,-35.5 -67.26,-16.81 -20.22,15.03 -23.02,37.44 -8.39,67.24 11.31,-30.03 36.53,-46.84 75.65,-50.43z"/>
   <path class="fil6" d="M2615.55 3447.58c-84.29,-36.05 -169.21,-79.25 -254.76,-129.57 -57.1,-10.75 -97.17,-4.36 -120.25,19.17 -3.53,3.95 -6.81,8.27 -9.81,12.95 -3.48,6.02 -6.65,12.03 -9.54,18.01 -13.9,32.25 -18.73,76.76 -14.46,133.5 63.28,96.09 144.68,170.55 244.21,223.37 22.09,11.17 44.62,21.35 67.57,30.58 18.27,7.32 36.8,14.04 55.62,20.15 28.25,9.17 57.13,16.96 86.62,23.36 59.08,12.32 122.38,19.61 189.9,21.85 55.05,-33.56 85.39,-72.52 91.05,-116.86 0.53,-4.66 0.85,-9.4 0.97,-14.26 0.43,-46.2 -23.65,-112.74 -74.21,-170.05 -74.98,-16.93 -159.94,-31.14 -252.91,-72.2zm-140.11 37.54c-13.78,32.95 -40.88,62.95 -64.64,92.42 -122.21,-33.12 -175.82,-92.02 -160.82,-176.7 33.87,-45.49 75.13,-56.38 123.78,-32.7 72.6,25.33 106.49,64.33 101.68,116.98z"/>
   <path class="fil6" d="M2886.77 2483.81c-23.21,81.59 2.98,153.45 78.61,215.53 161.37,65.2 292.74,98.03 394.13,98.49 55.37,0.26 101.79,-9.14 139.28,-28.18 119.08,-96.79 132.69,-208.07 40.83,-333.83 -85.87,-29.84 -176.51,-48.9 -271.96,-57.18 -22.88,-5.51 -44.74,-10.08 -65.6,-13.74 -183.04,-32.03 -288.14,7.61 -315.29,118.91zm265.13 161.31c-64.57,-6.16 -135.01,-27.4 -179.93,-82.94 -17.71,-32.59 5.33,-104.16 51.87,-135.82 31.21,-4.8 72.94,-7.35 186.7,36.77 14.41,70.92 -30.44,151.45 -58.64,181.99z"/>
   <path class="fil6" d="M3121.48 3152.84c-246.16,-32.49 -599.9,-140.6 -804.88,-260.45 -1.61,-2.19 -3.19,-4.36 -4.73,-6.53 -58.64,-1.34 -107.15,33.08 -145.52,103.27 -46.19,112.78 4.04,213.67 150.72,302.67 14.6,8.97 29.41,17.72 44.41,26.26 220.21,125.24 479.74,201.96 686.76,200.72 117.05,-7.56 191.29,-271.6 73.24,-365.94zm-783.81 57.03c-12.13,9.8 -28.75,7.35 -49.89,-7.37 -79.59,-51.38 -109.08,-101.04 -88.45,-149.02 25.8,-61.86 63.57,-87.43 113.3,-76.73 90.77,22.54 137.39,52.08 139.84,88.65 -34.07,97.52 -72.35,145.68 -114.8,144.47z"/>
   <path class="fil6" d="M2504.36 2656.72c91.16,8.95 131,45.98 119.53,111.12 -25.43,108.36 -64.1,159.3 -116.04,152.8 -105.26,-23.48 -173.24,-61.84 -203.91,-115.1 8.98,-84.58 36.58,-137.15 82.77,-157.71 45.38,-1.4 84.6,1.55 117.65,8.89zm461.02 42.62c-258.94,-92.47 -460.87,-125.14 -605.77,-98 -111.48,77.42 -127.4,172.26 -47.74,284.52 1.54,2.17 3.12,4.34 4.73,6.53 204.98,119.85 558.72,227.96 804.88,260.45 105.02,13.87 190.47,13.97 236.42,-4.65 76.35,-56.7 100.26,-333.56 1.61,-350.36 -101.39,-0.46 -232.76,-33.29 -394.13,-98.49z"/>
   <path class="fil6" d="M1693.61 2910.79c80.91,-230.75 132.33,-409.33 154.24,-535.77 -5.29,1.43 -10.68,2.72 -16.17,3.88 -98.28,38.19 -161.42,16.48 -218.18,-84.28 9.35,32.32 21.82,65.68 37.42,100.06 38.88,65.27 37.37,133.02 -4.54,203.25 -44.68,47.14 -67.64,125.89 -68.89,236.23 5.16,12.14 9.69,24.78 13.56,37.93 12.59,42.74 18.34,90.82 17.28,144.23 1.5,46.54 -1.03,92.67 -7.59,138.39 46.8,-106.41 77.76,-187.72 92.87,-243.92z"/>
   <path class="fil6" d="M1635.05 1984.49c-48.14,89.89 -55.32,193.26 -21.55,310.13 56.76,100.76 119.9,122.47 218.18,84.28 5.49,-1.16 10.88,-2.45 16.17,-3.88 16.13,-4.34 31.34,-9.91 45.62,-16.71 63.32,-30.14 108.4,-84.38 135.22,-162.73 26.26,-68.92 -1.91,-150.45 -84.54,-244.64 -18.81,-21.45 -40.46,-43.56 -64.93,-66.32 -107.15,1.23 -188.54,34.51 -244.17,99.87zm97.7 201.36c-48.62,-11.68 -65.48,-50.98 -50.56,-117.93 17.46,-50.46 73.08,-81.89 166.88,-94.29 47.29,-8.45 80.86,13.5 100.73,65.86 -67.4,13.64 -139.75,62.42 -217.05,146.36z"/>
   <path class="fil5" d="M2617.22 685.15c-114.65,-43.9 -210.31,-34.13 -286.95,29.3 10.77,2.6 21.6,5.27 32.5,7.99 109.79,27.42 226.15,60.85 349.07,100.29 63.61,20.4 128.98,42.43 196.1,66.05 0.11,0.04 0.21,0.07 0.32,0.12 27.07,9.53 54.43,19.32 82.07,29.38 119.35,43.4 244.01,91.68 373.99,144.84 118.71,48.54 241.85,101.15 369.44,157.83 3.39,1.5 6.78,3.01 10.17,4.52 70.64,-57.19 109.83,-130.7 117.55,-220.53 46.33,-35.59 60.47,-92.98 42.43,-172.17 -37.96,-76.92 -116.7,-99.88 -236.23,-68.89 -45.76,-34.13 -126.96,-40.47 -243.59,-19 -96.42,-36.94 -204.52,-52.91 -324.3,-47.91 -54.72,-41.33 -151.32,-58.43 -289.81,-51.31 -46.73,-11.53 -110.98,1.64 -192.76,39.49z"/>
   <path class="fil7" d="M1460.96 3674.69c140.94,90.23 280.01,163.88 417.21,220.93 5.98,2.49 11.94,4.95 17.91,7.36 0.05,0.02 0.09,0.05 0.14,0.06 133.52,52.29 271.84,91.82 414.97,118.61 58.77,-0.03 103.64,-2.66 134.58,-7.92 0.11,-0.43 0.21,-0.87 0.32,-1.3 26.59,-111.5 50.73,-197.11 72.42,-256.85 -77.34,-31.06 -149.79,-73.15 -217.33,-126.26 -105.75,-86.44 -128.68,-180.46 -68.78,-282.06 21.13,-31.76 64.15,-41.48 129.04,-29.13 -14.86,-8.51 -29.65,-17.28 -44.38,-26.33 -146.66,-89 -196.9,-189.89 -150.7,-302.66 38.37,-70.19 86.88,-104.61 145.52,-103.28 -79.66,-112.25 -63.76,-207.1 47.72,-284.52 144.91,-27.14 346.84,5.53 605.78,98 -75.63,-62.08 -101.82,-133.93 -78.61,-215.53 27.15,-111.3 132.24,-150.94 315.29,-118.91 124.11,-176.96 244.73,-438.18 361.85,-783.67 -414.74,-174.06 -866.89,-336.35 -1356.44,-486.84 -77.2,130.63 -164.97,416.15 -263.32,856.55 82.62,94.19 110.81,175.73 84.55,244.65 -26.83,78.35 -71.91,132.59 -135.23,162.73 -116.07,480.96 -276.68,908.23 -481.84,1281.8 16.38,11.79 32.83,23.32 49.33,34.57z"/>
   <path class="fil1 str3" d="M1582.87 3200.31c35.83,-151.48 34.03,-273.53 -5.38,-366.15 1.24,-110.34 24.21,-189.08 68.89,-236.23 41.91,-70.23 43.42,-137.98 4.54,-203.25 -72.03,-158.71 -77.32,-295.44 -15.87,-410.19 55.63,-65.36 137.02,-98.64 244.17,-99.87 131.89,122.7 181.72,226.34 149.48,310.97 -34.87,101.81 -100.54,162.91 -197.02,183.31 -98.28,38.19 -161.42,16.48 -218.17,-84.28"/>
   <path class="fil8" d="M1732.75 2185.85c77.3,-83.94 149.65,-132.72 217.05,-146.36 -19.87,-52.36 -53.44,-74.31 -100.73,-65.86 -93.8,12.4 -149.42,43.83 -166.88,94.29 -14.92,66.95 1.94,106.25 50.56,117.93z"/>
   <path class="fil1 str2" d="M1682.19 2067.92c-14.91,66.94 1.94,106.25 50.56,117.93 77.3,-83.93 149.65,-132.73 217.05,-146.36 -19.86,-52.36 -53.44,-74.31 -100.73,-65.86 -93.8,12.4 -149.43,43.83 -166.88,94.29z"/>
   <path class="fil1 str3" d="M2574.13 3775.75c-45.05,157.26 -69.04,319.51 -90.4,458.32 -37.14,116.87 -111.86,162.47 -224.14,136.82 -343.25,-60.1 -630.82,-164.9 -862.7,-314.39 -133.58,-82.16 -180,-151.33 -139.27,-207.5 14.48,-38.41 34.07,-75.16 58.77,-110.27 215.51,-418.19 341.25,-694.16 377.23,-827.94 80.9,-230.75 132.32,-409.33 154.23,-535.76"/>
   <path class="fil1 str3" d="M1879.22 1884.62c87.29,-370.39 196.72,-695.09 328.31,-974.1 45.31,-110.43 72.22,-179.09 80.73,-206 395.32,91.31 880.55,264.96 1455.67,520.95 -127.5,519.07 -286.26,903.46 -476.26,1153.17 -223.69,-53.87 -350.66,-18.81 -380.9,105.17 -23.21,81.6 2.98,153.45 78.61,215.53 249.5,100.79 427.3,124.23 533.41,70.31 119.07,-96.79 132.68,-208.07 40.82,-333.83 -85.86,-29.84 -176.5,-48.9 -271.94,-57.18"/>
   <path class="fil1 str3" d="M2965.38 2699.34c-258.94,-92.47 -460.87,-125.14 -605.78,-98 -113.63,78.92 -127.96,175.94 -43,291.04 292.44,171 887.65,318.07 1041.29,255.81 76.36,-56.7 100.27,-333.56 1.63,-350.35"/>
   <path class="fil1 str3" d="M3111.84 3145.82c131.53,87.41 56.5,365.21 -63.6,372.95 -221.11,1.33 -502.14,-86.29 -731.18,-226.97 -146.66,-89 -196.9,-189.89 -150.7,-302.66 38.37,-70.19 86.88,-104.61 145.52,-103.28"/>
   <path class="fil1 str2" d="M2192.09 1089.66c495.47,151.83 952.74,315.69 1371.82,491.57"/>
   <path class="fil1 str2" d="M1492.52 3696.77c252.73,161.75 525.62,270.04 818.67,324.88"/>
   <path class="fil1 str2" d="M1944.15 1950.94c98.35,-440.4 186.12,-725.92 263.32,-856.55 53.01,-159.41 98.34,-272.48 136,-339.22 106.06,15.01 237.46,60.57 378.36,68.16"/>
   <path class="fil1 str2" d="M3202.06 2364.9c124.11,-176.96 244.73,-438.18 361.85,-783.67 63.16,-148.22 99.36,-258.99 108.58,-332.32 -96.61,-60.69 -223,-100.92 -308.17,-185.79"/>
   <path class="fil1 str2" d="M2518.51 3755.58c-30.58,84.24 -66.05,219.93 -106.38,407.09 11.56,71.16 -13.57,107.11 -75.4,107.82 -343.09,-7.66 -690,-132.56 -1040.73,-374.69 14.76,-61.57 48.81,-138.68 102.15,-231.31 212.39,-380.73 377.93,-817.93 496.63,-1311.61"/>
   <path class="fil9" d="M1363.24 3740.81c-21.2,45.34 -41.83,97.72 -61.87,157.13 350.72,242.13 697.63,367.03 1040.72,374.69 61.83,-0.71 86.97,-36.66 75.4,-107.83 3.54,-16.65 7.61,-35.24 12.21,-55.76 7.58,-34.05 14.99,-66.19 22.22,-96.42 -31.03,6 -77.94,9 -140.73,9.03 -136.41,-22.16 -274.78,-61.72 -415.11,-118.67 -157.73,-64 -317.92,-149.98 -480.61,-257.94 -3.96,7.21 -7.96,14.41 -11.96,21.59 -14.94,25.94 -28.36,50.67 -40.27,74.18z"/>
   <path class="fil10" d="M2342.09 4272.63c-192.18,-4.29 -385.56,-45.37 -580.13,-123.23 -154.56,-61.31 -309.89,-145.85 -465.96,-253.6 14.76,-61.57 48.81,-138.68 102.15,-231.31 211.61,-379.33 376.72,-814.71 495.32,-1306.17 -14.28,6.79 -29.48,12.36 -45.62,16.71 -21.91,126.43 -73.33,305.01 -154.23,535.76 -16.71,62.1 -52.75,154.85 -108.14,278.24 -63.93,142.41 -153.63,325.64 -269.09,549.7 -24.7,35.11 -44.29,71.86 -58.77,110.27 -40.73,56.17 5.69,125.34 139.27,207.5 231.88,149.49 519.45,254.29 862.7,314.39 112.28,25.65 187,-19.95 224.14,-136.82 21.36,-138.81 45.35,-301.06 90.4,-458.32 -18.82,-6.12 -37.36,-12.83 -55.62,-20.17 -21.77,59.97 -46.02,146.03 -72.74,258.15 2.11,-0.36 4.17,-0.73 6.15,-1.11 -7.23,30.23 -14.64,62.37 -22.22,96.42 -4.6,20.52 -8.67,39.11 -12.21,55.76 11.57,71.17 -13.57,107.12 -75.4,107.83z"/>
   <path class="fil10" d="M1944.15 1950.94c98.35,-440.4 186.12,-725.92 263.32,-856.55 53.01,-159.41 98.34,-272.48 136,-339.22 103.55,14.66 231.25,58.43 368.37,67.56 -151.11,-48.48 -292.29,-87.89 -423.58,-118.21 -8.51,26.91 -35.42,95.57 -80.73,206 -131.59,279.01 -241.02,603.71 -328.31,974.1 24.46,22.76 46.11,44.88 64.93,66.32z"/>
   <path class="fil10" d="M3563.91 1581.23c-117.12,345.49 -237.74,606.71 -361.85,783.67 20.86,3.65 42.73,8.23 65.61,13.74 190,-249.71 348.76,-634.1 476.26,-1153.17 -3.41,-1.49 -6.81,-2.96 -10.2,-4.45 -126.25,-54.97 -248.21,-106.45 -365.9,-154.45 85.1,82.52 209.36,122.47 304.66,182.34 -9.22,73.33 -45.42,184.1 -108.58,332.32z"/>
   <path class="fil11" d="M2207.47 1094.39c489.55,150.49 941.7,312.78 1356.44,486.84 63.16,-148.22 99.36,-258.99 108.58,-332.32 -95.3,-59.87 -219.56,-99.82 -304.66,-182.34 -161.33,-65.81 -314.62,-125.07 -459.89,-177.79 -67.12,-23.62 -132.49,-45.65 -196.1,-66.05 -137.12,-9.13 -264.82,-52.9 -368.37,-67.56 -37.66,66.74 -82.99,179.81 -136,339.22z"/>
   <path class="fil12" d="M1675.35 3561.4c136.11,100.03 295.91,-275.4 479.4,-1126.27 28.16,-479.09 118.97,-825.37 272.43,-1038.84 25.7,-41.09 34.62,-82.25 26.75,-123.5 -59.47,-61.95 -112.07,-48.32 -157.79,40.92 -163.5,364.16 -202.63,650.34 -234.62,1139.57 -59.46,365.96 -155.19,671.59 -386.17,1108.12z"/>
   <path class="fil13" d="M2143.03 2255.78c8.71,-309.14 88.16,-597.63 238.33,-865.44 16.09,-51.43 -1.26,-68.15 -52.07,-50.18 -129.3,260.75 -207.79,600.36 -235.5,1018.81 -49.78,416.75 -158.95,791.46 -327.52,1124.16 167.21,-196.08 292.8,-605.2 376.76,-1227.35z"/>
   <path class="fil1 str2" d="M2330.27 714.45c76.64,-63.43 172.3,-73.2 286.95,-29.3 81.78,-37.85 146.03,-51.02 192.76,-39.49 138.49,-7.12 235.09,9.98 289.81,51.31 125.01,-41 238.97,-7.18 324.3,47.91 116.63,-21.47 197.83,-15.13 243.59,19 119.53,-30.99 198.27,-8.03 236.23,68.89 18.04,79.19 3.9,136.58 -42.43,172.17 -7.72,89.83 -46.91,163.34 -117.55,220.53 -495.55,-224.25 -955.94,-391.92 -1381.16,-503.03"/>
   <path class="fil1 str4" d="M2765.38 775.01c76.17,-6.78 136.33,7.78 180.48,43.67"/>
   <path class="fil1 str4" d="M3094.59 789.67c59.97,-25.19 120.95,-16.18 182.94,27.03 70.15,-29.93 122,-16.6 155.53,39.97 128.48,-8.44 182.59,27.88 162.34,108.95"/>
   <path class="fil1 str4" d="M3216.2 714.17c29.49,-7 54.43,-3.31 74.84,11.05"/>
   <path class="fil1 str4" d="M3510.64 791.66c42.47,-8.77 72.54,-1.5 90.23,21.83"/>
   <path class="fil1 str4" d="M2736.75 796.27c-1.55,-8.72 1.63,-11.08 9.54,-7.08"/>
   <path class="fil1 str4" d="M3494.67 899.76c25.88,-2.91 41.68,5.08 47.43,24"/>
   <path class="fil1 str4" d="M2487.58 699.99c18.68,-8.66 32.54,-6.62 41.57,6.14"/>
   <path class="fil1 str4" d="M2719.46 683.27c24.12,-16.17 46.7,-15.67 67.75,1.5 39.33,-20.11 66.63,-13.23 81.93,20.61"/>
   <path class="fil1 str4" d="M2989.23 697.63c24.19,-1.78 45.55,7.04 64.06,26.46"/>
   <path class="fil1 str4" d="M3323.16 967.88c17.56,5.93 27.83,13.1 30.81,21.54"/>
   <path class="fil1 str4" d="M3307.1 846.56c44.56,-11.57 74.23,-1.53 89.01,30.14"/>
   <path class="fil1 str4" d="M3337.9 868.1c12.95,-1.46 20.85,2.54 23.72,12"/>
   <path class="fil1 str4" d="M3545.21 1017.68c77.95,30.36 107.84,77.26 89.68,140.7"/>
   <path class="fil1 str4" d="M3489.18 1051.89c24.91,16.73 38.67,38.59 41.29,65.57"/>
   <path class="fil1 str4" d="M3555.71 1061.72c25.2,3.88 42.96,17.83 53.29,41.85"/>
   <path class="fil12" d="M3040.34 1444.4c128.5,222.91 158.76,180.22 195.69,343.29 -18.38,114.59 -81.79,231.65 -212.62,461.4 -31.08,37.89 -68.03,57.92 -90.8,97.05 115.46,-33.93 169.04,-51.5 249.74,-22.59 22.59,-66.03 88.86,-169.52 115.09,-203.9 103.38,-239.63 145.8,-411.8 180.87,-534.07 -210.06,-73.52 -320.33,-132.3 -437.97,-141.18zm113.48 695.14c76.3,-164.22 113.41,-247.81 126.13,-328.58 -16.03,-113.4 -33.41,-82.75 -97.48,-235.89 63.38,3.37 121.57,41.9 233.35,88.36 -21.92,86.56 -49.02,208.27 -110.71,378.74 -15.03,24.74 -53.35,98.89 -67.17,145.73 -42.92,-18.32 -72.31,-4.7 -135.56,21.88 13.26,-27.99 33.72,-42.91 51.44,-70.24z"/>
   <path class="fil13" d="M3182.47 1575.07c64.07,153.14 81.45,122.49 97.48,235.89 -12.72,80.77 -49.83,164.36 -126.13,328.58 -17.72,27.33 -38.18,42.25 -51.44,70.24 63.25,-26.58 92.64,-40.2 135.56,-21.88 13.82,-46.84 52.14,-120.99 67.17,-145.73 61.69,-170.47 88.79,-292.18 110.71,-378.74 -111.78,-46.46 -169.97,-84.99 -233.35,-88.36z"/>
   <path class="fil14 str5" d="M2601.09 2445.83c-154.48,-49.69 -307.76,-99 -459.82,-147.91 142.85,-430.27 251.49,-762.93 325.9,-997.99 148.48,47.76 296.97,95.53 445.46,143.29 113.97,50.96 165.78,136.35 155.46,256.15 -21.74,113.17 -81.38,191.77 -178.92,235.79 -22.13,4.76 -41.2,6.55 -57.23,5.38 109.3,75.17 150.85,167.82 124.66,277.95 -24.53,104.46 -73.9,175.79 -148.12,213.99 -67.58,25.64 -136.71,30.1 -207.39,13.35zm-8.73 -104.65c-108.42,-34.88 -209.1,-67.26 -302.04,-97.16 37.37,-116.17 74.74,-232.34 112.11,-348.51 131.66,42.35 238.15,76.61 319.48,102.77 178.25,77.49 133.98,297.41 5.52,341.48 -35.79,10.77 -80.81,11.24 -135.07,1.42zm163.84 -482.12c-105.72,-34.01 -211.44,-68.01 -317.15,-102.02 35.9,-111.59 71.79,-223.16 107.69,-334.76 103.75,33.38 207.51,66.76 311.26,100.13 181.99,95.81 82.28,347.55 -101.8,336.65z"/>
   <path class="fil15" d="M2632.25 3749.98c138.57,41.14 219.32,36.82 242.21,-12.94 -110.73,-0.78 -205.79,-16.55 -285.21,-47.3 10.56,33.26 24.9,53.35 43,60.24z"/>
   <path class="fil15" d="M2670.31 3342.08c7.68,99.23 280.41,135.2 359.86,131.34 33.87,-7.45 51.39,-26.71 52.54,-57.79 -129.89,1.47 -267.35,-23.04 -412.4,-73.55z"/>
   <path class="fil15" d="M3327.91 3110.32c24.05,-17.58 38.29,-51.94 44,-99.16 -99.21,40.26 -343.77,38.28 -633.53,-28.9 4.15,118.76 558.03,150.67 589.53,128.06z"/>
   <path class="fil15" d="M3239.99 2710.12c8.5,35.57 104.8,61.85 228.53,29.55 20.77,-13.94 49.23,-39.34 53.85,-74.21 -41.94,39.18 -153.58,54.07 -282.38,44.66z"/>
   <path class="fil15" d="M1642.14 2915.71c45.92,-84.81 94.08,-222.28 144.48,-412.41 -13.24,1.19 -27.69,-0.12 -43.35,-3.94 8.79,47.87 -14.41,89.89 -69.61,126.09 -46.97,79.77 -57.48,176.52 -31.52,290.26z"/>
   <path class="fil15" d="M1800.18 2340.43c86.71,-14.61 150.62,-65.83 191.75,-153.66 5.73,-15.98 0.92,-33.05 -14.44,-51.23 -31.85,43.51 -113.28,99.12 -244.3,166.81 10.65,24.23 32.97,36.93 66.99,38.08z"/>
   <path class="fil1 str3" d="M2361.44 3318.13c-64.89,-12.35 -107.91,-2.63 -129.04,29.13 -59.9,101.6 -36.98,195.62 68.78,282.06 156.76,123.27 339.92,187.15 549.47,191.64 76.52,-37.42 105.34,-98.3 86.47,-182.65 -17.31,-46.19 -36.58,-105.73 -65.71,-128.71 -134.41,-30.35 -301.68,-74.51 -493.95,-182.41"/>
   <path class="fil8" d="M2373.76 3368.14c-48.65,-23.68 -89.91,-12.79 -123.78,32.7 -15,84.68 38.61,143.58 160.82,176.7 23.76,-29.47 50.86,-59.47 64.64,-92.42 4.81,-52.65 -29.08,-91.65 -101.68,-116.98z"/>
   <path class="fil8" d="M2303.75 3211.67c13.72,5.99 25.03,5.38 33.92,-1.8 42.45,1.21 80.73,-46.95 114.8,-144.47 -2.45,-36.58 -49.07,-66.11 -139.84,-88.65 -49.73,-10.7 -87.5,14.87 -113.3,76.72 -20.63,47.99 8.86,97.64 88.46,149.03 5.45,3.79 10.77,6.83 15.96,9.17z"/>
   <path class="fil8" d="M2310.5 2801.6c30.67,53.26 92.09,95.56 197.35,119.04 51.94,6.5 90.61,-44.44 116.04,-152.8 11.46,-65.14 -28.37,-102.17 -119.53,-111.12 -33.05,-7.34 -72.27,-10.29 -117.65,-8.89 -3.82,1.7 -7.51,3.63 -11.08,5.76 -38.55,23.19 -56.91,70.51 -65.13,148.01z"/>
   <path class="fil8" d="M2971.97 2562.18c44.92,55.54 115.36,76.78 179.93,82.94 28.2,-30.54 73.05,-111.07 58.64,-181.99 -113.76,-44.12 -155.49,-41.57 -186.7,-36.77 -46.54,31.66 -69.58,103.23 -51.87,135.82z"/>
   <path class="fil1 str2" d="M3023.84 2426.36c-46.54,31.66 -69.58,103.23 -51.87,135.82 44.92,55.55 115.36,76.78 179.93,82.94 28.2,-30.55 73.06,-111.07 58.64,-181.99 -113.76,-44.13 -155.49,-41.57 -186.7,-36.77z"/>
   <path class="fil1 str2" d="M2386.71 2647.84c45.38,-1.41 84.6,1.55 117.65,8.88 91.16,8.95 131,45.99 119.53,111.12 -25.43,108.36 -64.1,159.3 -116.04,152.8 -105.27,-23.48 -166.68,-65.78 -197.34,-119.05 8.97,-84.57 30,-133.19 76.2,-153.75z"/>
   <path class="fil1 str2" d="M2287.79 3202.5c-79.6,-51.38 -109.09,-101.04 -88.46,-149.02 25.8,-61.85 63.57,-87.43 113.3,-76.72 90.77,22.53 137.39,52.07 139.84,88.64 -21.97,62.88 -77.12,198.12 -164.68,137.1z"/>
   <path class="fil1 str2" d="M2410.8 3577.54c-122.21,-33.12 -175.82,-92.02 -160.83,-176.71 33.88,-45.48 75.14,-56.37 123.79,-32.69 72.6,25.33 106.49,64.33 101.67,116.99 -13.78,32.94 -40.87,62.93 -64.63,92.41z"/>
   <path class="fil6" d="M4883.01 3447.58c84.29,-36.05 169.21,-79.25 254.76,-129.57 57.1,-10.75 97.17,-4.36 120.25,19.17 3.53,3.95 6.81,8.27 9.82,12.95 3.47,6.02 6.64,12.03 9.53,18.01 13.9,32.25 18.73,76.76 14.46,133.5 -63.28,96.09 -144.68,170.55 -244.21,223.37 -22.09,11.17 -44.62,21.35 -67.57,30.58 -18.27,7.32 -36.8,14.04 -55.62,20.15 -28.25,9.17 -57.13,16.96 -86.62,23.36 -59.08,12.32 -122.38,19.61 -189.9,21.85 -55.05,-33.56 -85.39,-72.52 -91.05,-116.86 -0.53,-4.66 -0.85,-9.4 -0.97,-14.26 -0.43,-46.2 23.65,-112.74 74.21,-170.05 74.98,-16.93 159.94,-31.14 252.91,-72.2zm140.11 37.54c13.78,32.95 40.88,62.95 64.64,92.42 122.21,-33.12 175.82,-92.02 160.83,-176.7 -33.88,-45.49 -75.14,-56.38 -123.79,-32.7 -72.6,25.33 -106.49,64.33 -101.68,116.98z"/>
   <path class="fil6" d="M4611.79 2483.81c23.21,81.59 -2.98,153.45 -78.61,215.53 -161.37,65.2 -292.74,98.03 -394.13,98.49 -55.37,0.26 -101.79,-9.14 -139.28,-28.18 -119.08,-96.79 -132.69,-208.07 -40.82,-333.83 85.86,-29.84 176.5,-48.9 271.95,-57.18 22.88,-5.51 44.74,-10.08 65.6,-13.74 183.04,-32.03 288.14,7.61 315.29,118.91zm-265.12 161.31c64.56,-6.16 135,-27.4 179.92,-82.94 17.71,-32.59 -5.33,-104.16 -51.87,-135.82 -31.21,-4.8 -72.94,-7.35 -186.7,36.77 -14.41,70.92 30.44,151.45 58.65,181.99z"/>
   <path class="fil6" d="M4377.08 3152.84c246.16,-32.49 599.9,-140.6 804.88,-260.45 1.61,-2.19 3.19,-4.36 4.73,-6.53 58.64,-1.34 107.15,33.08 145.52,103.27 46.19,112.78 -4.04,213.67 -150.72,302.67 -14.6,8.97 -29.41,17.72 -44.41,26.26 -220.21,125.24 -479.74,201.96 -686.76,200.72 -117.05,-7.56 -191.29,-271.6 -73.24,-365.94zm783.81 57.03c12.13,9.8 28.75,7.35 49.89,-7.37 79.59,-51.38 109.08,-101.04 88.45,-149.02 -25.8,-61.86 -63.57,-87.43 -113.3,-76.73 -90.77,22.54 -137.39,52.08 -139.84,88.65 34.07,97.52 72.35,145.68 114.8,144.47z"/>
   <path class="fil6" d="M4994.2 2656.72c-91.16,8.95 -131,45.98 -119.53,111.12 25.43,108.36 64.1,159.3 116.04,152.8 105.27,-23.48 173.24,-61.84 203.91,-115.1 -8.98,-84.58 -36.58,-137.15 -82.77,-157.71 -45.38,-1.4 -84.6,1.55 -117.65,8.89zm-461.02 42.62c258.95,-92.47 460.87,-125.14 605.77,-98 111.48,77.42 127.4,172.26 47.74,284.52 -1.54,2.17 -3.12,4.34 -4.73,6.53 -204.98,119.85 -558.72,227.96 -804.88,260.45 -105.02,13.87 -190.47,13.97 -236.42,-4.65 -76.35,-56.7 -100.26,-333.56 -1.61,-350.36 101.39,-0.46 232.76,-33.29 394.13,-98.49z"/>
   <path class="fil6" d="M5804.95 2910.79c-80.91,-230.75 -132.33,-409.33 -154.24,-535.77 5.29,1.43 10.68,2.72 16.17,3.88 98.28,38.19 161.42,16.48 218.18,-84.28 -9.35,32.32 -21.82,65.68 -37.42,100.06 -38.88,65.27 -37.37,133.02 4.54,203.25 44.68,47.14 67.64,125.89 68.89,236.23 -5.16,12.14 -9.69,24.78 -13.56,37.93 -12.59,42.74 -18.34,90.82 -17.28,144.23 -1.5,46.54 1.03,92.67 7.59,138.39 -46.8,-106.41 -77.76,-187.72 -92.87,-243.92z"/>
   <path class="fil6" d="M5863.51 1984.49c48.14,89.89 55.32,193.26 21.55,310.13 -56.76,100.76 -119.9,122.47 -218.18,84.28 -5.49,-1.16 -10.88,-2.45 -16.17,-3.88 -16.13,-4.34 -31.34,-9.91 -45.62,-16.71 -63.32,-30.14 -108.4,-84.38 -135.22,-162.73 -26.26,-68.92 1.91,-150.45 84.54,-244.64 18.81,-21.45 40.46,-43.56 64.93,-66.32 107.15,1.23 188.54,34.51 244.17,99.87zm-97.7 201.36c48.62,-11.68 65.48,-50.98 50.56,-117.93 -17.46,-50.46 -73.08,-81.89 -166.88,-94.29 -47.29,-8.45 -80.86,13.5 -100.73,65.86 67.4,13.64 139.75,62.42 217.05,146.36z"/>
   <path class="fil5" d="M4881.34 685.15c114.65,-43.9 210.31,-34.13 286.95,29.3 -10.77,2.6 -21.6,5.27 -32.5,7.99 -109.79,27.42 -226.15,60.85 -349.07,100.29 -63.61,20.4 -128.98,42.43 -196.1,66.05 -0.11,0.04 -0.21,0.07 -0.32,0.12 -27.07,9.53 -54.43,19.32 -82.07,29.38 -119.35,43.4 -244.01,91.68 -373.99,144.84 -118.71,48.54 -241.85,101.15 -369.44,157.83 -3.39,1.5 -6.78,3.01 -10.17,4.52 -70.64,-57.19 -109.83,-130.7 -117.55,-220.53 -46.33,-35.59 -60.47,-92.98 -42.43,-172.17 37.96,-76.92 116.7,-99.88 236.23,-68.89 45.76,-34.13 126.96,-40.47 243.59,-19 96.42,-36.94 204.52,-52.91 324.3,-47.91 54.72,-41.33 151.32,-58.43 289.81,-51.31 46.73,-11.53 110.98,1.64 192.76,39.49z"/>
   <path class="fil7" d="M6037.6 3674.69c-140.94,90.23 -280.01,163.88 -417.21,220.93 -5.98,2.49 -11.94,4.95 -17.91,7.36 -0.05,0.02 -0.09,0.05 -0.14,0.06 -133.52,52.29 -271.84,91.82 -414.97,118.61 -58.77,-0.03 -103.64,-2.66 -134.58,-7.92 -0.11,-0.43 -0.21,-0.87 -0.32,-1.3 -26.59,-111.5 -50.73,-197.11 -72.42,-256.85 77.34,-31.06 149.79,-73.15 217.33,-126.26 105.75,-86.44 128.68,-180.46 68.78,-282.06 -21.13,-31.76 -64.15,-41.48 -129.04,-29.13 14.86,-8.51 29.65,-17.28 44.38,-26.33 146.67,-89 196.9,-189.89 150.7,-302.66 -38.37,-70.19 -86.88,-104.61 -145.52,-103.28 79.66,-112.25 63.76,-207.1 -47.72,-284.52 -144.91,-27.14 -346.84,5.53 -605.78,98 75.63,-62.08 101.82,-133.93 78.61,-215.53 -27.15,-111.3 -132.24,-150.94 -315.29,-118.91 -124.11,-176.96 -244.73,-438.18 -361.85,-783.67 414.74,-174.06 866.89,-336.35 1356.44,-486.84 77.2,130.63 164.97,416.15 263.32,856.55 -82.62,94.19 -110.81,175.73 -84.55,244.65 26.83,78.35 71.91,132.59 135.23,162.73 116.07,480.96 276.68,908.23 481.84,1281.8 -16.38,11.79 -32.82,23.32 -49.33,34.57z"/>
   <path class="fil1 str3" d="M5915.69 3200.31c-35.83,-151.48 -34.03,-273.53 5.38,-366.15 -1.24,-110.34 -24.21,-189.08 -68.89,-236.23 -41.91,-70.23 -43.42,-137.98 -4.54,-203.25 72.03,-158.71 77.32,-295.44 15.87,-410.19 -55.63,-65.36 -137.02,-98.64 -244.17,-99.87 -131.89,122.7 -181.72,226.34 -149.48,310.97 34.87,101.81 100.54,162.91 197.02,183.31 98.28,38.19 161.42,16.48 218.18,-84.28"/>
   <path class="fil8" d="M5765.81 2185.85c-77.3,-83.94 -149.65,-132.72 -217.05,-146.36 19.87,-52.36 53.44,-74.31 100.73,-65.86 93.8,12.4 149.42,43.83 166.88,94.29 14.92,66.95 -1.94,106.25 -50.56,117.93z"/>
   <path class="fil1 str2" d="M5816.37 2067.92c14.91,66.94 -1.94,106.25 -50.56,117.93 -77.3,-83.93 -149.65,-132.73 -217.05,-146.36 19.86,-52.36 53.44,-74.31 100.73,-65.86 93.8,12.4 149.43,43.83 166.88,94.29z"/>
   <path class="fil1 str3" d="M4924.44 3775.75c45.04,157.26 69.03,319.51 90.39,458.32 37.14,116.87 111.86,162.47 224.14,136.82 343.25,-60.1 630.82,-164.9 862.7,-314.39 133.58,-82.16 180,-151.33 139.27,-207.5 -14.48,-38.41 -34.07,-75.16 -58.77,-110.27 -215.51,-418.19 -341.25,-694.16 -377.23,-827.94 -80.9,-230.75 -132.32,-409.33 -154.23,-535.76"/>
   <path class="fil1 str3" d="M5619.34 1884.62c-87.29,-370.39 -196.72,-695.09 -328.31,-974.1 -45.31,-110.43 -72.22,-179.09 -80.73,-206 -395.32,91.31 -880.55,264.96 -1455.67,520.95 127.5,519.07 286.26,903.46 476.26,1153.17 223.69,-53.87 350.66,-18.81 380.9,105.17 23.21,81.6 -2.98,153.45 -78.61,215.53 -249.5,100.79 -427.3,124.23 -533.41,70.31 -119.07,-96.79 -132.68,-208.07 -40.82,-333.83 85.86,-29.84 176.5,-48.9 271.94,-57.18"/>
   <path class="fil1 str3" d="M4533.18 2699.34c258.94,-92.47 460.87,-125.14 605.78,-98 113.63,78.92 127.96,175.94 43,291.04 -292.44,171 -887.65,318.07 -1041.29,255.81 -76.36,-56.7 -100.27,-333.56 -1.63,-350.35"/>
   <path class="fil1 str3" d="M4386.72 3145.82c-131.53,87.41 -56.5,365.21 63.6,372.95 221.11,1.33 502.14,-86.29 731.18,-226.97 146.67,-89 196.9,-189.89 150.7,-302.66 -38.37,-70.19 -86.88,-104.61 -145.52,-103.28"/>
   <path class="fil1 str2" d="M5306.47 1089.66c-495.47,151.83 -952.74,315.69 -1371.82,491.57"/>
   <path class="fil1 str2" d="M6006.04 3696.77c-252.73,161.75 -525.62,270.04 -818.67,324.88"/>
   <path class="fil1 str2" d="M5554.41 1950.94c-98.35,-440.4 -186.12,-725.92 -263.32,-856.55 -53.01,-159.41 -98.34,-272.48 -136,-339.22 -106.06,15.01 -237.46,60.57 -378.36,68.16"/>
   <path class="fil1 str2" d="M4296.5 2364.9c-124.11,-176.96 -244.73,-438.18 -361.85,-783.67 -63.16,-148.22 -99.36,-258.99 -108.58,-332.32 96.61,-60.69 223,-100.92 308.17,-185.79"/>
   <path class="fil1 str2" d="M4980.05 3755.58c30.58,84.24 66.05,219.93 106.38,407.09 -11.56,71.16 13.57,107.11 75.4,107.82 343.09,-7.66 690,-132.56 1040.73,-374.69 -14.76,-61.57 -48.81,-138.68 -102.15,-231.31 -212.39,-380.73 -377.93,-817.93 -496.63,-1311.61"/>
   <path class="fil9" d="M6135.32 3740.81c21.2,45.34 41.83,97.72 61.87,157.13 -350.72,242.13 -697.63,367.03 -1040.72,374.69 -61.83,-0.71 -86.97,-36.66 -75.4,-107.83 -3.54,-16.65 -7.61,-35.24 -12.21,-55.76 -7.58,-34.05 -14.99,-66.19 -22.22,-96.42 31.03,6 77.94,9 140.73,9.03 136.41,-22.16 274.78,-61.72 415.11,-118.67 157.73,-64 317.93,-149.98 480.61,-257.94 3.96,7.21 7.96,14.41 11.96,21.59 14.94,25.94 28.36,50.67 40.27,74.18z"/>
   <path class="fil10" d="M5156.47 4272.63c192.18,-4.29 385.56,-45.37 580.13,-123.23 154.56,-61.31 309.89,-145.85 465.96,-253.6 -14.76,-61.57 -48.81,-138.68 -102.15,-231.31 -211.61,-379.33 -376.72,-814.71 -495.32,-1306.17 14.28,6.79 29.48,12.36 45.62,16.71 21.91,126.43 73.33,305.01 154.23,535.76 16.71,62.1 52.75,154.85 108.14,278.24 63.93,142.41 153.63,325.64 269.09,549.7 24.7,35.11 44.29,71.86 58.77,110.27 40.73,56.17 -5.69,125.34 -139.27,207.5 -231.88,149.49 -519.45,254.29 -862.7,314.39 -112.28,25.65 -187,-19.95 -224.14,-136.82 -21.36,-138.81 -45.35,-301.06 -90.39,-458.32 18.81,-6.12 37.35,-12.83 55.61,-20.17 21.77,59.97 46.02,146.03 72.74,258.15 -2.11,-0.36 -4.17,-0.73 -6.15,-1.11 7.23,30.23 14.64,62.37 22.22,96.42 4.6,20.52 8.67,39.11 12.21,55.76 -11.57,71.17 13.57,107.12 75.4,107.83z"/>
   <path class="fil10" d="M5554.41 1950.94c-98.35,-440.4 -186.12,-725.92 -263.32,-856.55 -53.01,-159.41 -98.34,-272.48 -136,-339.22 -103.55,14.66 -231.25,58.43 -368.37,67.56 151.11,-48.48 292.29,-87.89 423.58,-118.21 8.51,26.91 35.42,95.57 80.73,206 131.59,279.01 241.02,603.71 328.31,974.1 -24.46,22.76 -46.11,44.88 -64.93,66.32z"/>
   <path class="fil10" d="M3934.65 1581.23c117.12,345.49 237.74,606.71 361.85,783.67 -20.85,3.65 -42.73,8.23 -65.61,13.74 -190,-249.71 -348.76,-634.1 -476.26,-1153.17 3.41,-1.49 6.81,-2.96 10.2,-4.45 126.25,-54.97 248.21,-106.45 365.9,-154.45 -85.1,82.52 -209.36,122.47 -304.66,182.34 9.22,73.33 45.42,184.1 108.58,332.32z"/>
   <path class="fil11" d="M5291.09 1094.39c-489.55,150.49 -941.7,312.78 -1356.44,486.84 -63.16,-148.22 -99.36,-258.99 -108.58,-332.32 95.3,-59.87 219.56,-99.82 304.66,-182.34 161.33,-65.81 314.62,-125.07 459.89,-177.79 67.12,-23.62 132.49,-45.65 196.1,-66.05 137.12,-9.13 264.82,-52.9 368.37,-67.56 37.66,66.74 82.99,179.81 136,339.22z"/>
   <path class="fil12" d="M5823.21 3561.4c-136.11,100.03 -295.91,-275.4 -479.4,-1126.27 -28.16,-479.09 -118.97,-825.37 -272.43,-1038.84 -25.7,-41.09 -34.62,-82.25 -26.75,-123.5 59.47,-61.95 112.07,-48.32 157.79,40.92 163.51,364.16 202.63,650.34 234.62,1139.57 59.46,365.96 155.19,671.59 386.17,1108.12z"/>
   <path class="fil13" d="M5355.53 2255.78c-8.71,-309.14 -88.16,-597.63 -238.33,-865.44 -16.08,-51.43 1.26,-68.15 52.07,-50.18 129.3,260.75 207.79,600.36 235.5,1018.81 49.78,416.75 158.95,791.46 327.52,1124.16 -167.21,-196.08 -292.8,-605.2 -376.76,-1227.35z"/>
   <path class="fil1 str2" d="M5168.29 714.45c-76.64,-63.43 -172.3,-73.2 -286.95,-29.3 -81.78,-37.85 -146.03,-51.02 -192.76,-39.49 -138.49,-7.12 -235.09,9.98 -289.81,51.31 -125.01,-41 -238.97,-7.18 -324.3,47.91 -116.63,-21.47 -197.83,-15.13 -243.59,19 -119.53,-30.99 -198.27,-8.03 -236.23,68.89 -18.04,79.19 -3.9,136.58 42.43,172.17 7.72,89.83 46.91,163.34 117.55,220.53 495.55,-224.25 955.94,-391.92 1381.16,-503.03"/>
   <path class="fil1 str4" d="M4733.18 775.01c-76.17,-6.78 -136.33,7.78 -180.48,43.67"/>
   <path class="fil1 str4" d="M4403.97 789.67c-59.97,-25.19 -120.95,-16.18 -182.93,27.03 -70.16,-29.93 -122.01,-16.6 -155.54,39.97 -128.48,-8.44 -182.59,27.88 -162.34,108.95"/>
   <path class="fil1 str4" d="M4282.36 714.17c-29.49,-7 -54.43,-3.31 -74.84,11.05"/>
   <path class="fil1 str4" d="M3987.92 791.66c-42.47,-8.77 -72.54,-1.5 -90.23,21.83"/>
   <path class="fil1 str4" d="M4761.81 796.27c1.55,-8.72 -1.63,-11.08 -9.54,-7.08"/>
   <path class="fil1 str4" d="M4003.89 899.76c-25.88,-2.91 -41.68,5.08 -47.43,24"/>
   <path class="fil1 str4" d="M5010.98 699.99c-18.68,-8.66 -32.54,-6.62 -41.57,6.14"/>
   <path class="fil1 str4" d="M4779.1 683.27c-24.12,-16.17 -46.7,-15.67 -67.75,1.5 -39.33,-20.11 -66.63,-13.23 -81.93,20.61"/>
   <path class="fil1 str4" d="M4509.33 697.63c-24.19,-1.78 -45.55,7.04 -64.06,26.46"/>
   <path class="fil1 str4" d="M4175.4 967.88c-17.56,5.93 -27.83,13.1 -30.81,21.54"/>
   <path class="fil1 str4" d="M4191.46 846.56c-44.56,-11.57 -74.23,-1.53 -89.01,30.14"/>
   <path class="fil1 str4" d="M4160.66 868.1c-12.95,-1.46 -20.85,2.54 -23.72,12"/>
   <path class="fil1 str4" d="M3953.35 1017.68c-77.95,30.36 -107.84,77.26 -89.68,140.7"/>
   <path class="fil1 str4" d="M4009.38 1051.89c-24.91,16.73 -38.67,38.59 -41.29,65.57"/>
   <path class="fil1 str4" d="M3942.85 1061.72c-25.2,3.88 -42.96,17.83 -53.28,41.85"/>
   <path class="fil12" d="M4458.22 1444.4c-128.5,222.91 -158.76,180.22 -195.69,343.29 18.38,114.59 81.79,231.65 212.62,461.4 31.08,37.89 68.03,57.92 90.8,97.05 -115.46,-33.93 -169.04,-51.5 -249.73,-22.59 -22.6,-66.03 -88.87,-169.52 -115.1,-203.9 -103.38,-239.63 -145.8,-411.8 -180.87,-534.07 210.06,-73.52 320.33,-132.3 437.97,-141.18zm-113.48 695.14c-76.3,-164.22 -113.41,-247.81 -126.13,-328.58 16.03,-113.4 33.41,-82.75 97.48,-235.89 -63.38,3.37 -121.57,41.9 -233.35,88.36 21.92,86.56 49.02,208.27 110.71,378.74 15.03,24.74 53.35,98.89 67.17,145.73 42.92,-18.32 72.31,-4.7 135.56,21.88 -13.26,-27.99 -33.72,-42.91 -51.44,-70.24z"/>
   <path class="fil13" d="M4316.09 1575.07c-64.07,153.14 -81.45,122.49 -97.48,235.89 12.72,80.77 49.83,164.36 126.13,328.58 17.72,27.33 38.18,42.25 51.44,70.24 -63.25,-26.58 -92.64,-40.2 -135.56,-21.88 -13.82,-46.84 -52.14,-120.99 -67.17,-145.73 -61.69,-170.47 -88.79,-292.18 -110.71,-378.74 111.78,-46.46 169.97,-84.99 233.35,-88.36z"/>
   <path class="fil14 str5" d="M5154.69 2335.27c-151.53,58.08 -301.88,115.7 -451.03,172.86 -158.3,-424.82 -282.09,-752.15 -371.39,-981.97 145.65,-55.82 291.3,-111.64 436.96,-167.46 120.74,-31.7 214.63,2.37 281.65,102.2 53.98,101.83 56.75,200.45 8.32,295.88 -14.27,17.58 -28.01,30.92 -41.23,40.05 132.28,-9.9 222.72,36.26 271.32,138.5 46.34,96.77 52.56,183.3 18.66,259.58 -36.6,62.34 -87.69,109.12 -153.26,140.36zm-72.38 -76.09c-106.35,40.77 -205.11,78.61 -296.27,113.55 -43.67,-113.95 -87.34,-227.9 -131.01,-341.85 129.14,-49.49 233.6,-89.53 313.37,-120.1 187.47,-51.31 290.78,147.83 218.28,262.66 -21.14,30.82 -55.93,59.4 -104.37,85.74zm-174.43 -478.38c-103.7,39.74 -207.39,79.48 -311.08,119.22 -41.95,-109.46 -83.9,-218.9 -125.85,-328.36 101.77,-39.01 203.55,-78.01 305.32,-117.02 201.87,-39.37 281.91,219.3 131.61,326.16z"/>
   <path class="fil15" d="M4866.31 3749.98c-138.57,41.14 -219.32,36.82 -242.21,-12.94 110.73,-0.78 205.79,-16.55 285.21,-47.3 -10.56,33.26 -24.9,53.35 -43,60.24z"/>
   <path class="fil15" d="M4828.25 3342.08c-7.68,99.23 -280.41,135.2 -359.86,131.34 -33.87,-7.45 -51.39,-26.71 -52.54,-57.79 129.89,1.47 267.35,-23.04 412.4,-73.55z"/>
   <path class="fil15" d="M4170.65 3110.32c-24.05,-17.58 -38.29,-51.94 -44,-99.16 99.21,40.26 343.77,38.28 633.53,-28.9 -4.15,118.76 -558.03,150.67 -589.53,128.06z"/>
   <path class="fil15" d="M4258.57 2710.12c-8.5,35.57 -104.8,61.85 -228.53,29.55 -20.77,-13.94 -49.23,-39.34 -53.85,-74.21 41.94,39.18 153.58,54.07 282.38,44.66z"/>
   <path class="fil15" d="M5856.42 2915.71c-45.92,-84.81 -94.08,-222.28 -144.48,-412.41 13.24,1.19 27.69,-0.12 43.35,-3.94 -8.79,47.87 14.41,89.89 69.61,126.09 46.97,79.77 57.48,176.52 31.52,290.26z"/>
   <path class="fil15" d="M5698.38 2340.43c-86.71,-14.61 -150.62,-65.83 -191.75,-153.66 -5.73,-15.98 -0.92,-33.05 14.44,-51.23 31.85,43.51 113.28,99.12 244.3,166.81 -10.65,24.23 -32.97,36.93 -66.99,38.08z"/>
   <path class="fil1 str3" d="M5137.12 3318.13c64.89,-12.35 107.91,-2.63 129.04,29.13 59.9,101.6 36.98,195.62 -68.78,282.06 -156.76,123.27 -339.92,187.15 -549.47,191.64 -76.52,-37.42 -105.34,-98.3 -86.46,-182.65 17.3,-46.19 36.57,-105.73 65.7,-128.71 134.41,-30.35 301.68,-74.51 493.95,-182.41"/>
   <path class="fil8" d="M5124.8 3368.14c48.65,-23.68 89.91,-12.79 123.79,32.7 14.99,84.68 -38.62,143.58 -160.83,176.7 -23.76,-29.47 -50.86,-59.47 -64.64,-92.42 -4.81,-52.65 29.08,-91.65 101.68,-116.98z"/>
   <path class="fil8" d="M5194.81 3211.67c-13.72,5.99 -25.03,5.38 -33.92,-1.8 -42.45,1.21 -80.73,-46.95 -114.8,-144.47 2.45,-36.58 49.07,-66.11 139.84,-88.65 49.73,-10.7 87.5,14.87 113.3,76.72 20.63,47.99 -8.86,97.64 -88.46,149.03 -5.45,3.79 -10.77,6.83 -15.96,9.17z"/>
   <path class="fil8" d="M5188.06 2801.6c-30.67,53.26 -92.08,95.56 -197.35,119.04 -51.94,6.5 -90.61,-44.44 -116.04,-152.8 -11.46,-65.14 28.37,-102.17 119.53,-111.12 33.05,-7.34 72.27,-10.29 117.65,-8.89 3.82,1.7 7.52,3.63 11.08,5.76 38.55,23.19 56.91,70.51 65.13,148.01z"/>
   <path class="fil8" d="M4526.59 2562.18c-44.92,55.54 -115.36,76.78 -179.92,82.94 -28.21,-30.54 -73.06,-111.07 -58.65,-181.99 113.76,-44.12 155.49,-41.57 186.7,-36.77 46.54,31.66 69.58,103.23 51.87,135.82z"/>
   <path class="fil1 str2" d="M4474.72 2426.36c46.54,31.66 69.58,103.23 51.87,135.82 -44.92,55.55 -115.36,76.78 -179.93,82.94 -28.2,-30.55 -73.06,-111.07 -58.64,-181.99 113.76,-44.13 155.49,-41.57 186.7,-36.77z"/>
   <path class="fil1 str2" d="M5111.85 2647.84c-45.38,-1.41 -84.6,1.55 -117.65,8.88 -91.16,8.95 -131,45.99 -119.53,111.12 25.43,108.36 64.1,159.3 116.04,152.8 105.27,-23.48 166.68,-65.78 197.34,-119.05 -8.97,-84.57 -30,-133.19 -76.2,-153.75z"/>
   <path class="fil1 str2" d="M5210.78 3202.5c79.59,-51.38 109.08,-101.04 88.45,-149.02 -25.8,-61.85 -63.57,-87.43 -113.3,-76.72 -90.77,22.53 -137.39,52.07 -139.84,88.64 21.97,62.88 77.12,198.12 164.69,137.1z"/>
   <path class="fil1 str2" d="M5087.76 3577.54c122.21,-33.12 175.82,-92.02 160.83,-176.71 -33.88,-45.48 -75.14,-56.37 -123.79,-32.69 -72.6,25.33 -106.49,64.33 -101.67,116.99 13.78,32.94 40.87,62.93 64.63,92.41z"/>
  </g>
 </g>
</svg>
