<?xml version="1.0" encoding="UTF-8"?>
<!DOCTYPE svg PUBLIC "-//W3C//DTD SVG 1.1//EN" "http://www.w3.org/Graphics/SVG/1.1/DTD/svg11.dtd">
<!-- Creator: CorelDRAW 2019 -->
<svg xmlns="http://www.w3.org/2000/svg" xml:space="preserve" width="300mm" height="240mm" version="1.1" style="shape-rendering:geometricPrecision; text-rendering:geometricPrecision; image-rendering:optimizeQuality; fill-rule:evenodd; clip-rule:evenodd"
viewBox="0 0 30000 24000"
 xmlns:xlink="http://www.w3.org/1999/xlink">
 <defs>
  <style type="text/css">
   <![CDATA[
    .fil0 {fill:#A18B59}
   ]]>
  </style>
 </defs>
 <g id="Layer_x0020_1">
  <metadata id="CorelCorpID_0Corel-Layer"/>
  <path class="fil0" d="M10025.77 22077.49c1136.41,0 2130.56,-939.98 2130.56,-2014.46 0,-1074.48 -994.15,-2014.45 -2130.56,-2014.45l10652.25 0 0 2014.45c0,1074.48 994.15,2014.46 2130.56,2014.46 1136.4,0 2130.55,-939.98 2130.55,-2014.46 0,-939.97 -567.93,-1611.46 -1420.37,-1879.95l0 -1476.96 -13350.74 -0.51 852.44 -1476.95 13066.77 -1208.48 2272.27 -8057.29 -17469.59 0 -994.15 -4028.91 -4261.12 0 0 1342.97 3124.71 0 2982.46 11280.22 -1846.59 3491.41 0 2014.45c0,1074.48 994.15,2014.46 2130.55,2014.46zm-709.52 -14772.14l-0.13 0 0 -0.51 0.13 0.51zm13634.57 5371.36l-11930.36 1208.47 -1704.21 -6579.83 15196.67 0 -1562.1 5371.36z"/>
 </g>
</svg>
